<?xml version="1.0" standalone="no"?><!DOCTYPE svg PUBLIC "-//W3C//DTD SVG 1.1//EN" "http://www.w3.org/Graphics/SVG/1.1/DTD/svg11.dtd"><svg t="1783865916961" class="icon" viewBox="0 0 1024 1024" version="1.1" xmlns="http://www.w3.org/2000/svg" p-id="15011" xmlns:xlink="http://www.w3.org/1999/xlink" width="200" height="200"><path d="M308.208059 659.929144l81.007989-6.857175c6.000668 39.432081 19.930935 69.080332 41.789779 88.936565 21.858844 19.863397 48.219211 29.788443 79.079056 29.788443 37.140898 0 68.577888-13.996782 94.293573-42.00365 25.716708-28.000728 38.575574-65.149812 38.575574-111.439068 0-44.00012-12.363585-78.717829-37.074384-104.152105-24.718985-25.429159-57.078996-38.146808-97.082082-38.146808-24.858154 0-47.294143 5.646604-67.291592 16.930601-20.004613 11.291161-35.722596 25.930579-47.14781 43.932582l-72.435753-9.428743 60.863183-322.745658 312.458361 0 0 73.721025L444.507328 278.465153l-33.860179 168.873152c37.718043-26.28669 77.290317-39.433104 118.725008-39.433104 54.862515 0 101.151771 19.006889 138.869814 57.006342 37.718043 38.005592 56.577576 86.86744 56.577576 146.58452 0 56.865125-16.57449 106.015545-49.720402 147.443074-40.288588 50.864458-95.297436 76.293617-165.014264 76.293617-57.153698 0-103.799064-16.000416-139.942239-48.00534C333.992305 755.228627 313.352219 712.796212 308.208059 659.929144z" p-id="15012" fill="#333333"></path></svg>