<?xml version="1.0" standalone="no"?><!DOCTYPE svg PUBLIC "-//W3C//DTD SVG 1.1//EN" "http://www.w3.org/Graphics/SVG/1.1/DTD/svg11.dtd"><svg t="1770063678236" class="icon" viewBox="0 0 1024 1024" version="1.1" xmlns="http://www.w3.org/2000/svg" p-id="38333" xmlns:xlink="http://www.w3.org/1999/xlink" width="200" height="200"><path d="M0 810.666667l0-597.333334C0 93.866667 93.866667 0 213.333333 0l597.333334 0C930.133333 0 1024 93.866667 1024 213.333333l0 597.333334C1024 930.133333 930.133333 1024 810.666667 1024l-597.333334 0c-119.466667 0-213.333333-93.866667-213.333333-213.333333z m938.666667-597.333334C938.666667 145.066667 878.933333 85.333333 810.666667 85.333333l-597.333334 0c-68.26666699 0-128 59.733333-128 128l0 597.333334c0 68.26666699 59.733333 128 128 128l597.333334 0c68.26666699 0 128-59.733333 128-128l0-597.333334z" fill="#ffffff" p-id="38334"></path><path d="M597.333333 256l0 512-170.666666 0L426.666667 256z" fill="#ffffff" p-id="38335"></path><path d="M768 426.666667l0 170.666666-512 0L256 426.666667z" fill="#ffffff" p-id="38336"></path></svg>