<?xml version="1.0" standalone="no"?><!DOCTYPE svg PUBLIC "-//W3C//DTD SVG 1.1//EN" "http://www.w3.org/Graphics/SVG/1.1/DTD/svg11.dtd"><svg t="1770902571479" class="icon" viewBox="0 0 1024 1024" version="1.1" xmlns="http://www.w3.org/2000/svg" p-id="1418" xmlns:xlink="http://www.w3.org/1999/xlink" width="200" height="200"><path d="M576 832c31.744 0 52.416 33.472 38.144 61.824-20.288 40.32-59.072 66.048-102.144 66.048s-81.92-25.792-102.144-66.048A42.688 42.688 0 0 1 448 832zM277.888 411.52l-0.576 16.576V627.2c0 21.76-4.672 42.432-13.12 61.44l-5.44 11.072-2.56 4.288 451.392-0.064-397.568-397.568a237.76 237.76 0 0 0-32.128 105.088zM512 64c47.36 0 87.424 24.64 101.376 58.752 123.904 40.576 212.672 154.368 218.304 291.328l0.32 14.016v158.912l-85.376-85.376v-73.6c0-127.424-96.32-229.248-221.952-235.712L512 192c-23.04 0-45.056 3.2-65.92 9.088L379.648 134.72c10.112-4.544 20.48-8.576 31.104-12.032C424.64 88.576 464.768 64 512 64zM192.64 188.992a42.688 42.688 0 1 1 60.352-60.352l663.68 663.68a42.688 42.688 0 0 1-60.288 60.416l-63.488-63.488-686.208 0.064-8.128-0.64c-46.336-7.296-46.08-77.44 0.704-84.16L106.688 704l8.96-0.448c38.976-4.096 71.68-34.176 75.904-68.864L192 627.2V428.096c0-68.48 20.672-131.584 56.256-183.488l-55.68-55.68z" fill="#ffffff" p-id="1419"></path></svg>