<?xml version="1.0" standalone="no"?><!DOCTYPE svg PUBLIC "-//W3C//DTD SVG 1.1//EN" "http://www.w3.org/Graphics/SVG/1.1/DTD/svg11.dtd"><svg t="1770902613312" class="icon" viewBox="0 0 1024 1024" version="1.1" xmlns="http://www.w3.org/2000/svg" p-id="4508" xmlns:xlink="http://www.w3.org/1999/xlink" width="200" height="200"><path d="M576 832c31.744 0 52.416 33.472 38.144 61.824-20.288 40.32-59.072 66.048-102.144 66.048s-81.92-25.792-102.144-66.048A42.688 42.688 0 0 1 448 832zM512 64c47.168 0 87.168 24.512 101.248 58.432 130.624 41.92 225.152 162.816 225.152 305.664V627.2c0 42.24 35.2 76.8 78.912 76.8l8.128 0.64c46.08 7.296 46.08 76.8 0 84.096l-8.128 0.64H106.688l-8.128-0.64C49.92 781.056 52.608 704 106.688 704l8.64-0.448A77.632 77.632 0 0 0 185.6 627.2V428.096c0-142.848 94.528-263.744 225.216-305.664C424.832 88.512 464.832 64 512 64z m0 128C378.688 192 270.912 297.856 270.912 428.096V627.2c0 27.328-6.784 52.992-18.88 75.52l-0.704 1.28h521.28l-6.4-13.12a159.488 159.488 0 0 1-12.736-52.096l-0.384-11.584V428.096C753.088 297.856 645.312 192 512 192z" fill="#ffffff" p-id="4509"></path></svg>