<?xml version="1.0" standalone="no"?><!DOCTYPE svg PUBLIC "-//W3C//DTD SVG 1.1//EN" "http://www.w3.org/Graphics/SVG/1.1/DTD/svg11.dtd"><svg t="1784398745304" class="icon" viewBox="0 0 1024 1024" version="1.1" xmlns="http://www.w3.org/2000/svg" p-id="32705" xmlns:xlink="http://www.w3.org/1999/xlink" width="200" height="200"><path d="M298.666667 213.333333a85.333333 85.333333 0 0 0-85.333334 85.333334v426.666666a85.333333 85.333333 0 0 0 85.333334 85.333334h426.666666a85.333333 85.333333 0 0 0 85.333334-85.333334V298.666667a85.333333 85.333333 0 0 0-85.333334-85.333334H298.666667zM128 298.666667a170.666667 170.666667 0 0 1 170.666667-170.666667h426.666666a170.666667 170.666667 0 0 1 170.666667 170.666667v426.666666a170.666667 170.666667 0 0 1-170.666667 170.666667H298.666667a170.666667 170.666667 0 0 1-170.666667-170.666667V298.666667z m542.165333 55.168a42.666667 42.666667 0 0 1 0 60.330666l-256 256a42.666667 42.666667 0 0 1-60.330666-60.330666l256-256a42.666667 42.666667 0 0 1 60.330666 0z" fill="#333333" p-id="32706"></path></svg>