<?xml version="1.0" standalone="no"?><!DOCTYPE svg PUBLIC "-//W3C//DTD SVG 1.1//EN" "http://www.w3.org/Graphics/SVG/1.1/DTD/svg11.dtd"><svg t="1770374944415" class="icon" viewBox="0 0 1024 1024" version="1.1" xmlns="http://www.w3.org/2000/svg" p-id="8259" xmlns:xlink="http://www.w3.org/1999/xlink" width="200" height="200"><path d="M456 810.56a1348.8 1348.8 0 0 1 352-411.2L992 256a43.2 43.2 0 0 0-43.52-72.96l-111.36 43.52a944.64 944.64 0 0 0-404.16 320l-29.76 41.28a22.72 22.72 0 0 1-32 6.08l-43.2-32a593.28 593.28 0 0 0-214.08-102.08L64 448a37.76 37.76 0 0 0-34.24 64l102.4 86.72a622.4 622.4 0 0 1 103.68 111.36L288 782.72a101.12 101.12 0 0 0 168 27.84z" p-id="8260" fill="#0EC1DF"></path></svg>