<?xml version="1.0" standalone="no"?><!DOCTYPE svg PUBLIC "-//W3C//DTD SVG 1.1//EN" "http://www.w3.org/Graphics/SVG/1.1/DTD/svg11.dtd"><svg xmlns="http://www.w3.org/2000/svg" t="1784363556632" class="icon" viewBox="0 0 1024 1024" version="1.1" p-id="9310" width="200" height="200"><path d="M921.6 110.933H785.067V42.667c0-18.774-15.36-34.134-34.134-34.134S716.8 23.893 716.8 42.667v68.266H307.2V42.667c0-18.774-15.36-34.134-34.133-34.134s-34.134 15.36-34.134 34.134v68.266H102.4c-56.32 0-102.4 46.08-102.4 102.4v699.734c0 56.32 46.08 102.4 102.4 102.4h819.2c56.32 0 102.4-46.08 102.4-102.4V213.333c0-56.32-46.08-102.4-102.4-102.4zM102.4 179.2h136.533v34.133c0 18.774 15.36 34.134 34.134 34.134s34.133-15.36 34.133-34.134V179.2h409.6v34.133c0 18.774 15.36 34.134 34.133 34.134s34.134-15.36 34.134-34.134V179.2H921.6c18.773 0 34.133 15.36 34.133 34.133v85.334H68.267v-85.334c0-18.773 15.36-34.133 34.133-34.133z m819.2 768H102.4c-18.773 0-34.133-15.36-34.133-34.133V366.933h887.466v546.134c0 18.773-15.36 34.133-34.133 34.133z" p-id="9311" fill="#333333" /><path d="M380.586667 860.16L512 790.755556l131.413333 69.404444-25.031111-146.773333 106.382222-103.537778-146.773333-21.617778L512 455.111111l-65.991111 133.12-146.773333 21.617778 106.382222 103.537778zM455.111111 644.551111l29.582222-3.982222 13.084445-26.737778 14.222222-30.151111 14.791111 30.151111 13.084445 26.737778 29.582222 3.982222 32.995555 5.12-23.893333 23.324445-21.048889 20.48 5.12 29.582222 5.12 32.995555-29.013333-16.497777-26.737778-13.084445-26.737778 13.084445-30.151111 16.497777 5.12-32.995555 5.12-29.582222-21.048889-20.48-23.893333-23.324445z" p-id="9312" fill="#333333" /></svg>