<?xml version="1.0" standalone="no"?><!DOCTYPE svg PUBLIC "-//W3C//DTD SVG 1.1//EN" "http://www.w3.org/Graphics/SVG/1.1/DTD/svg11.dtd"><svg t="1784363481891" class="icon" viewBox="0 0 1024 1024" version="1.1" xmlns="http://www.w3.org/2000/svg" p-id="5596" xmlns:xlink="http://www.w3.org/1999/xlink" width="200" height="200"><path d="M412 189.2v-44.7h201v44.7H412z m-234.4 0c-40.4 0-67 26.4-67 67v591.7c0 40.6 26.6 67 67 67h669.8c40.4 0 67-26.4 67-67V256.2c0-40.6-26.6-67-67-67h-33.5v-44.7h44.7c53.8 0 100.5 41.3 100.5 95.4v621.6c0 54.1-43.6 98-97.4 98H163.4c-53.8 0-97.4-43.9-97.4-98V240c0-54.1 46.7-95.4 100.5-95.4h44.7v44.7c-15-0.1-33.6-0.1-33.6-0.1z m-11.2 156.3l0.1 452.4c0 33.8 27 61.2 60.3 61.2h571.4c33.3 0 60.3-27.4 60.3-61.2l0.1-452.4-33.5-0.2v430.2c0 27.6-21.8 50-48.7 50H248.6c-26.9 0-48.7-22.4-48.7-50V345.4l-33.5 0.1z m547.1-100.3c-18.5 0-33.5-15.3-33.5-34.1V100.6c0-18.9 15-34.1 33.5-34.1S747 81.7 747 100.6V211c0 18.9-15 34.2-33.5 34.2z m-402 0c-18.5 0-33.5-15.3-33.5-34.1V100.6c0-18.9 15-34.1 33.5-34.1S345 81.8 345 100.6V211c0 18.9-15 34.2-33.5 34.2z" fill="#333333" p-id="5597"></path><path d="M445.5 401.4c18.5 0 33.5 15 33.5 33.5s-15 33.5-33.5 33.5-33.5-15-33.5-33.5 15-33.5 33.5-33.5zM579.5 401.4c18.5 0 33.5 15 33.5 33.5s-15 33.5-33.5 33.5-33.5-15-33.5-33.5 15-33.5 33.5-33.5zM713.5 401.4c18.5 0 33.5 15 33.5 33.5s-15 33.5-33.5 33.5-33.5-15-33.5-33.5 15-33.5 33.5-33.5zM311.5 535.3c18.5 0 33.5 15 33.5 33.5s-15 33.5-33.5 33.5-33.5-15-33.5-33.5 15.1-33.5 33.5-33.5zM445.5 535.3c18.5 0 33.5 15 33.5 33.5s-15 33.5-33.5 33.5-33.5-15-33.5-33.5 15-33.5 33.5-33.5zM579.5 535.3c18.5 0 33.5 15 33.5 33.5s-15 33.5-33.5 33.5-33.5-15-33.5-33.5 15-33.5 33.5-33.5zM713.5 535.3c18.5 0 33.5 15 33.5 33.5s-15 33.5-33.5 33.5-33.5-15-33.5-33.5 15-33.5 33.5-33.5zM445.5 669.3c18.5 0 33.5 15 33.5 33.5s-15 33.5-33.5 33.5-33.5-15-33.5-33.5 15-33.5 33.5-33.5zM311.5 669.3c18.5 0 33.5 15 33.5 33.5s-15 33.5-33.5 33.5-33.5-15-33.5-33.5 15.1-33.5 33.5-33.5zM841.8 323.2c9.2 0 16.7 7.5 16.7 16.7s-7.5 16.7-16.7 16.7-16.7-7.5-16.7-16.7 7.5-16.7 16.7-16.7zM183.2 323.2c9.2 0 16.7 7.5 16.7 16.7s-7.5 16.7-16.7 16.7-16.7-7.5-16.7-16.7 7.4-16.7 16.7-16.7zM211.1 144.6c12.3 0 22.3 10 22.3 22.3s-10 22.3-22.3 22.3-22.3-10-22.3-22.3 9.9-22.3 22.3-22.3zM412 144.6c12.3 0 22.3 10 22.3 22.3s-10 22.3-22.3 22.3-22.3-10-22.3-22.3 10-22.3 22.3-22.3zM613 144.6c12.3 0 22.3 10 22.3 22.3s-10 22.3-22.3 22.3-22.3-10-22.3-22.3 9.9-22.3 22.3-22.3zM813.9 144.6c12.3 0 22.3 10 22.3 22.3s-10 22.3-22.3 22.3-22.3-10-22.3-22.3 10-22.3 22.3-22.3z" fill="#333333" p-id="5598"></path></svg>