<?xml version="1.0" standalone="no"?><!DOCTYPE svg PUBLIC "-//W3C//DTD SVG 1.1//EN" "http://www.w3.org/Graphics/SVG/1.1/DTD/svg11.dtd"><svg t="1770546307199" class="icon" viewBox="0 0 1024 1024" version="1.1" xmlns="http://www.w3.org/2000/svg" p-id="7258" xmlns:xlink="http://www.w3.org/1999/xlink" width="200" height="200"><path d="M937.989751 1024H85.271796a85.271796 85.271796 0 0 1-85.271796-85.271796V86.010249a85.271796 85.271796 0 0 1 85.271796-85.271795h546.16585l-85.271796 85.271795H85.271796v852.717955h852.717955V477.962057l85.271795-85.271795V938.728204a85.271796 85.271796 0 0 1-85.271795 85.271796z m-511.630773-213.179489l-212.75313 0.596903L213.179489 597.641022 790.895903 24.657192a83.651631 83.651631 0 0 1 118.527796 0l88.682668 89.109027a84.035354 84.035354 0 0 1 0 118.868883z m-127.907694-85.271795h127.907694l-127.907694-127.907694v127.907694zM850.159801 84.091634L383.72308 555.005125l85.271795 85.271795L938.842469 173.20066z" p-id="7259" fill="#ffffff"></path></svg>