<?xml version="1.0" standalone="no"?><!DOCTYPE svg PUBLIC "-//W3C//DTD SVG 1.1//EN" "http://www.w3.org/Graphics/SVG/1.1/DTD/svg11.dtd"><svg t="1770400625312" class="icon" viewBox="0 0 1024 1024" version="1.1" xmlns="http://www.w3.org/2000/svg" p-id="15761" xmlns:xlink="http://www.w3.org/1999/xlink" width="200" height="200"><path d="M607.904 660.608l-0.192-94.496-14.016 0.288-16.704 0.512-5.216 0.192a802.4 802.4 0 0 0-118.816 14.912c-104.096 21.408-187.008 62.592-237.312 127.104l-1.504 2.016c-31.296 40.896-56.608 22.016-56.608-18.912-0.096-161.216 80.096-267.712 214.496-325.888 46.592-20.192 111.616-32.992 161.504-40.512l5.504-0.8 2.688-0.384 5.312-0.8c1.696-0.192 3.392-0.512 5.088-0.704l4.992-0.704 2.4-0.288 4.704-0.608 4.512-0.608 4.288-0.512 4.096-0.512 3.904-0.512 3.712-0.384 5.088-0.608 4.512-0.512 3.904-0.384 3.296-0.288 6.112-0.512V209.312c0-24.8 15.488-32.096 34.688-16.288l259.296 213.216c19.2 15.808 19.2 41.312 0 57.088l-259.008 213.6c-19.2 15.808-34.688 8.384-34.784-16.288l0.064-0.032z m-210.496-236.8c-91.296 39.488-144.512 136.096-161.088 171.2l-1.184 2.496c-0.192 0.384-0.416 0.8-0.512 1.216l-0.992 2.112-0.8 1.888-0.704 1.6-0.608 1.312-0.608 1.504-0.288 0.8v0.096c56.416-42.112 127.904-70.4 209.888-87.296a858.144 858.144 0 0 1 128.192-16.096l3.488-0.192 10.784-0.288 4.608-0.096 3.712-0.096 6.304-0.096h12l15.008 0.192 8.896 0.192 1.792 0.096a36.576 36.576 0 0 1 35.616 36.8l-0.192 31.296 166.912-137.792-167.008-137.312 0.288 45.408c0.096 19.808-15.808 36-31.2 36-82.784 0.608-165.696 11.872-242.304 45.056zM98.592 826.304V443.008h81.408c21.504 0 39.488-17.6 39.104-39.104a38.4 38.4 0 0 0-38.304-37.6H21.984v536.512h722.688v-147.008c0-21.504-17.6-39.488-39.104-39.104a38.336 38.336 0 0 0-37.6 38.304v71.2l-569.408 0.096h0.032z" p-id="15762" fill="#333333"></path></svg>