<?xml version="1.0" standalone="no"?><!DOCTYPE svg PUBLIC "-//W3C//DTD SVG 1.1//EN" "http://www.w3.org/Graphics/SVG/1.1/DTD/svg11.dtd"><svg t="1781803665526" class="icon" viewBox="0 0 1024 1024" version="1.1" xmlns="http://www.w3.org/2000/svg" p-id="8967" xmlns:xlink="http://www.w3.org/1999/xlink" width="200" height="200"><path d="M290.154 381.599c0 18.54-15.03 33.569-33.569 33.569s-33.569-15.03-33.569-33.569 15.03-33.569 33.569-33.569 33.569 15.03 33.569 33.569z m440.645 0c0 18.54-15.029 33.569-33.568 33.569H385.667c-18.54 0-33.569-15.029-33.569-33.569 0-18.54 15.029-33.569 33.569-33.569H697.23c18.54 0 33.569 15.029 33.569 33.569zM290.154 533.438c0 18.543-15.03 33.572-33.569 33.572s-33.569-15.029-33.569-33.572c0-18.549 15.03-33.573 33.569-33.573s33.569 15.024 33.569 33.573z m270.06 0c0 18.543-18.088 33.572-31.33 33.572H382.371c-13.242 0-30.273-15.029-30.273-33.572 0-18.549 17.031-33.573 30.273-33.573h146.513c13.242-0.001 31.33 15.024 31.33 33.573z m-270.06 149.361c0 18.541-15.03 33.57-33.569 33.57s-33.569-15.029-33.569-33.57c0-18.537 15.03-33.568 33.569-33.568s33.569 15.031 33.569 33.568z m268.942 0c0 18.541-15.02 33.57-33.55 33.57H385.667c-18.54 0-33.569-15.029-33.569-33.57 0-18.539 15.029-33.568 33.569-33.568h139.879c18.53-0.001 33.55 15.029 33.55 33.568zM356.333 247.335c0 18.54-15.03 33.569-33.57 33.569s-33.569-15.029-33.569-33.569V113.058c0-18.54 15.029-33.569 33.569-33.569 18.54 0 33.57 15.029 33.57 33.569v134.277z m318.274 0c0 18.54-15.029 33.569-33.569 33.569-18.54 0-33.569-15.029-33.569-33.569V113.058c0-18.54 15.029-33.569 33.569-33.569 18.54 0 33.569 15.029 33.569 33.569v134.277z m-299.382-32.881v-68.189h212.778v68.189H375.225z m264.899 620.991v68.188H145.499c-37.08 0-67.139-30.059-67.139-67.139V213.403c0-37.08 30.059-67.139 67.139-67.139h124.804v68.189H188.51c-23.175 0-41.961 18.787-41.961 41.961v537.069c0 23.174 18.787 41.961 41.961 41.961h451.614z m245.968-350.179h-68.188V256.415c0-23.175-18.786-41.961-41.961-41.961h-83v-68.189h126.01c37.08 0 67.139 30.059 67.139 67.139v271.862z m54.439 90.429c-1.034-7.24-4.258-13.524-9.586-18.684-5.565-5.38-12.759-8.107-21.381-8.107h-66.411l-0.2-8.211-0.014-0.309c-0.374-5.92-3.119-11.904-8.163-17.791-5.173-6.029-12.743-9.088-22.502-9.088-0.751 0-1.52 0.02-2.303 0.056-11.257 0.527-19.005 4.474-23.024 11.721-3.307 5.947-4.914 11.052-4.914 15.606v8.016h-43.766v-9.188c0-5.788-2.408-11.681-7.37-18.024-3.488-4.446-10.042-9.745-21.453-9.745-0.673 0-1.359 0.019-2.059 0.055-9.273 0.487-16.787 3.283-22.334 8.31-5.891 5.339-8.878 11.342-8.878 17.842v10.75H607.61c-7.915 0-14.918 2.549-20.815 7.576-6.183 5.271-9.45 12.441-9.45 20.736 0 12.016 5.657 18.813 10.395 22.391 6.209 4.707 13.158 7.094 20.652 7.094h68.563v9.969c0 8.2 4.531 15.031 12.749 19.229 6.24 3.199 12.369 4.82 18.215 4.82 0.49 0 0.979-0.012 1.465-0.033 6.73-0.041 13.029-2.014 18.723-5.864 8.398-5.677 10.161-12.579 10.161-17.37v-10.75h43.766v6.844c0 8.845 4.046 15.945 11.695 20.531 6.286 3.773 12.262 5.732 17.77 5.824 6.924 0.605 13.686-1.229 20.042-5.414 7.082-4.661 11.026-11.506 11.406-19.794l0.202-7.991h67.588c8.721 0 16.171-3.115 22.144-9.261 6.135-6.314 8.78-13.834 7.65-21.746z m-27.356 101.983c-4.108-8.055-10.455-14.506-18.866-19.179-5.754-3.196-17.833-6.866-60.525-6.866H628.705c-12.921 0-19.792 6.311-23.284 11.609-4.491 6.822-6.504 13.888-5.983 20.998 0.548 7.492 3.761 13.857 9.54 18.907 5.64 4.946 12.015 7.454 18.946 7.454h78.328V876.43c0 9.109 3.675 16.506 10.629 21.391 5.829 4.093 12.18 6.168 18.876 6.168 0.445 0 0.892-0.01 1.34-0.027 6.71-0.041 13.448-2.258 20.034-6.594 7.593-5.004 11.605-12.109 11.605-20.547V710.602h76.375c7.438 0 9.641 1.117 9.937 1.289 0.723 0.67 1.308 2.314 1.594 4.472-0.006 2.826-0.07 7.942-0.193 15.596-0.137 8.056-0.072 18.692 0.195 32.513 0.243 12.852-0.545 23.375-2.341 31.279-1.559 6.857-4.183 11.928-7.795 15.068-3.577 3.105-9.974 5.14-18.503 5.885-11.271 0.99-19.259 2.43-24.426 4.404-6.397 2.449-11.415 7.422-14.915 14.786-3.081 6.499-3.882 13.688-2.38 21.37 1.521 7.777 5.701 14.631 12.422 20.367 3.926 3.352 9.841 4.98 18.082 4.98 8.301 0 19.177-1.58 33.251-4.833 26.445-6.118 43.072-14.442 50.834-25.456 7.137-10.144 12.046-21.957 14.593-35.115 2.42-12.506 3.783-29.213 4.051-49.656l0.001-59.48c0-2.631-0.065-6.095-0.199-10.603-0.174-5.538-2.183-12.011-6.144-19.79z" fill="#333333" p-id="8968"></path></svg>