<?xml version="1.0" standalone="no"?><!DOCTYPE svg PUBLIC "-//W3C//DTD SVG 1.1//EN" "http://www.w3.org/Graphics/SVG/1.1/DTD/svg11.dtd"><svg t="1770063710631" class="icon" viewBox="0 0 1024 1024" version="1.1" xmlns="http://www.w3.org/2000/svg" p-id="41812" xmlns:xlink="http://www.w3.org/1999/xlink" width="200" height="200"><path d="M867.392 874.666667a128.042667 128.042667 0 0 1-241.450667 0H106.666667a42.666667 42.666667 0 1 1 0-85.333334h519.274666a128.042667 128.042667 0 0 1 241.450667 0H917.333333a42.666667 42.666667 0 1 1 0 85.333334h-49.941333zM704 832a42.666667 42.666667 0 1 0 85.333333 0 42.666667 42.666667 0 0 0-85.333333 0z m-71.274667-597.333333a128.042667 128.042667 0 0 1-241.450666 0H106.666667a42.666667 42.666667 0 1 1 0-85.333334h284.608A128.042667 128.042667 0 0 1 632.746667 149.333333H917.333333a42.666667 42.666667 0 1 1 0 85.333334H632.725333zM469.333333 192a42.666667 42.666667 0 1 0 85.333334 0 42.666667 42.666667 0 0 0-85.333334 0z m448 362.666667H398.058667A128.042667 128.042667 0 0 1 156.586667 554.666667H106.666667a42.666667 42.666667 0 1 1 0-85.333334h49.941333a128.042667 128.042667 0 0 1 241.450667 0H917.333333a42.666667 42.666667 0 1 1 0 85.333334z m-682.666666-42.666667a42.666667 42.666667 0 1 0 85.333333 0 42.666667 42.666667 0 0 0-85.333333 0z" fill="#ffffff" p-id="41813"></path></svg>