<?xml version="1.0" standalone="no"?><!DOCTYPE svg PUBLIC "-//W3C//DTD SVG 1.1//EN" "http://www.w3.org/Graphics/SVG/1.1/DTD/svg11.dtd"><svg t="1784397548789" class="icon" viewBox="0 0 1024 1024" version="1.1" xmlns="http://www.w3.org/2000/svg" p-id="12569" xmlns:xlink="http://www.w3.org/1999/xlink" width="200" height="200"><path d="M832 51.2h-51.2a51.2 51.2 0 0 0 0 102.4h51.2a51.2 51.2 0 0 1 51.2 51.2v665.6a51.2 51.2 0 0 1-51.2 51.2h-614.4a51.2 51.2 0 0 1-51.2-51.2V204.8a51.2 51.2 0 0 1 51.2-51.2h51.2a51.2 51.2 0 0 0 0-102.4h-51.2a153.6 153.6 0 0 0-153.6 153.6v665.6a153.6 153.6 0 0 0 153.6 153.6h614.4a153.6 153.6 0 0 0 153.6-153.6V204.8a153.6 153.6 0 0 0-153.6-153.6z" fill="#333333" p-id="12570"></path><path d="M422.4 256a51.2 51.2 0 0 0 51.2-51.2V51.2a51.2 51.2 0 0 0-102.4 0v153.6a51.2 51.2 0 0 0 51.2 51.2zM627.2 256a51.2 51.2 0 0 0 51.2-51.2V51.2a51.2 51.2 0 0 0-102.4 0v153.6a51.2 51.2 0 0 0 51.2 51.2zM302.08 606.72l119.296 119.296a51.2 51.2 0 0 0 72.192 0l256-256a51.2 51.2 0 0 0-72.192-72.192l-219.648 220.16-83.456-83.456a51.2 51.2 0 0 0-72.192 72.192z" fill="#333333" p-id="12571"></path></svg>