<?xml version="1.0" standalone="no"?><!DOCTYPE svg PUBLIC "-//W3C//DTD SVG 1.1//EN" "http://www.w3.org/Graphics/SVG/1.1/DTD/svg11.dtd"><svg t="1784398177631" class="icon" viewBox="0 0 1080 1024" version="1.1" xmlns="http://www.w3.org/2000/svg" p-id="20787" xmlns:xlink="http://www.w3.org/1999/xlink" width="210.9375" height="200"><path d="M925.866667 77.198222h-125.326223v121.799111c0 36.977778-30.264889 67.413333-67.527111 67.413334a67.299556 67.299556 0 0 1-67.527111-67.413334V77.198222h-250.624v121.799111c0 36.977778-30.264889 67.413333-67.527111 67.413334a67.299556 67.299556 0 0 1-67.527111-67.413334V77.198222H154.481778C69.688889 77.198222 0 146.801778 0 231.623111v617.642667c0 84.821333 69.688889 154.424889 154.481778 154.424889H926.435556c84.792889 0 154.481778-69.603556 154.481777-154.424889V231.623111c-0.540444-84.821333-70.229333-154.424889-155.022222-154.424889z m77.255111 772.067556a77.368889 77.368889 0 0 1-77.255111 77.198222H154.453333a77.368889 77.368889 0 0 1-77.226666-77.198222V386.019556h925.866666v463.246222zM733.013333 231.623111c21.048889 0 38.371556-17.408 38.371556-38.599111V38.599111C771.384889 17.408 754.062222 0 733.013333 0c-21.048889 0-38.343111 17.408-38.343111 38.599111v154.424889c0 21.191111 17.265778 38.599111 38.343111 38.599111z m-386.218666 0c21.048889 0 38.343111-17.408 38.343111-38.599111V38.599111C385.137778 17.408 367.872 0 346.794667 0c-21.048889 0-38.343111 17.408-38.343111 38.599111v154.424889c0 21.191111 17.265778 38.599111 38.343111 38.599111z" fill="#4B92EF" p-id="20788"></path><path d="M472.974222 573.781333v-46.08H312.888889v266.24h61.44V687.786667h88.746667v-44.373334h-88.746667v-69.632h98.645333z m65.877334 76.8v-51.2h-47.104v194.56h58.368v-105.130666c0-38.912 15.018667-45.397333 40.277333-45.397334 5.12 0 11.264 0.341333 16.384 1.365334v-48.469334a88.462222 88.462222 0 0 0-16.384-1.365333c-27.306667 0-44.373333 18.773333-49.834667 55.637333h-1.706666zM656.611556 512c-18.432 0-32.768 11.605333-32.768 32.768 0 21.845333 14.336 33.792 32.768 33.792 18.432 0 33.792-12.970667 33.792-33.792 0-21.162667-15.36-32.768-33.792-32.768z m29.013333 87.381333h-58.026667v194.56h58.026667v-194.56z m70.656 125.610667a36.124444 36.124444 0 0 1 36.181333 35.84c0 18.773333-16.042667 36.522667-36.181333 36.522667-20.48 0-36.181333-16.384-36.181333-36.522667 0-19.456 15.701333-35.84 36.181333-35.84z" fill="#4B92EF" p-id="20789"></path></svg>