<?xml version="1.0" standalone="no"?><!DOCTYPE svg PUBLIC "-//W3C//DTD SVG 1.1//EN" "http://www.w3.org/Graphics/SVG/1.1/DTD/svg11.dtd"><svg t="1781613194179" class="icon" viewBox="0 0 1024 1024" version="1.1" xmlns="http://www.w3.org/2000/svg" p-id="8498" xmlns:xlink="http://www.w3.org/1999/xlink" width="200" height="200"><path d="M512 874.666667c200.298667 0 362.666667-162.368 362.666667-362.666667S712.298667 149.333333 512 149.333333 149.333333 311.701333 149.333333 512s162.368 362.666667 362.666667 362.666667z m448-362.666667c0 247.424-200.576 448-448 448S64 759.424 64 512 264.576 64 512 64s448 200.576 448 448z" fill="#0A0A0A" p-id="8499"></path><path d="M436.949333 276.586667c72.448-42.496 162.154667-16.853333 203.818667 54.293333 42.453333 72.448 16.853333 162.197333-54.229333 203.904l-0.213334 0.106667a63.872 63.872 0 0 0-31.914666 55.381333V618.666667h-85.333334V590.293333a149.205333 149.205333 0 0 1 74.346667-129.130666c31.701333-18.666667 41.557333-56.661333 23.722667-87.125334-18.56-31.701333-56.32-41.6-86.698667-24.021333-20.330667 12.586667-32.448 33.088-32.448 55.68h-85.333333c0-55.36 30.293333-102.186667 73.6-128.682667l0.341333-0.213333 0.341333-0.192z" fill="#0A0A0A" p-id="8500"></path><path d="M469.333333 661.333333h85.333334v85.333334h-85.333334v-85.333334z" fill="#0A0A0A" p-id="8501"></path></svg>