<?xml version="1.0" standalone="no"?><!DOCTYPE svg PUBLIC "-//W3C//DTD SVG 1.1//EN" "http://www.w3.org/Graphics/SVG/1.1/DTD/svg11.dtd"><svg t="1770546996592" class="icon" viewBox="0 0 1024 1024" version="1.1" xmlns="http://www.w3.org/2000/svg" p-id="37658" xmlns:xlink="http://www.w3.org/1999/xlink" width="200" height="200"><path d="M75.52 467.2c-24.064 0-43.52 17.216-43.52 38.4 0 10.176 4.608 19.904 12.8 27.136a46.72 46.72 0 0 0 30.72 11.264h196.16a46.72 46.72 0 0 0 30.784-11.264 36.224 36.224 0 0 0 12.8-27.136 36.224 36.224 0 0 0-12.8-27.136 46.72 46.72 0 0 0-30.784-11.264H75.52zM156.16 224c-24 0-43.52 17.152-43.52 38.4 0 10.176 4.544 19.968 12.736 27.136a46.72 46.72 0 0 0 30.848 11.264h217.856a46.464 46.464 0 0 0 29.76-11.776 36.16 36.16 0 0 0 12.16-26.624 36.16 36.16 0 0 0-12.16-26.624 46.464 46.464 0 0 0-29.76-11.776H156.224zM156.16 704c-24 0-43.52 17.152-43.52 38.4 0 10.176 4.544 19.968 12.736 27.136a46.72 46.72 0 0 0 30.848 11.264h217.856a46.464 46.464 0 0 0 29.76-11.776 36.16 36.16 0 0 0 12.16-26.624 36.16 36.16 0 0 0-12.16-26.624 46.464 46.464 0 0 0-29.76-11.776H156.224z" fill="#ffffff" p-id="37659"></path><path d="M718.016 253.76L494.4 538.368l86.656 0.768a51.2 51.2 0 0 1 50.624 53.888l-11.136 216.128 228.48-290.752h-99.008a51.2 51.2 0 0 1-51.008-55.808l19.008-208.832z m6.4-132.48c27.584-35.072 83.904-12.672 79.872 31.744l-26.24 288.64h136.768a44.8 44.8 0 0 1 35.2 72.448l-331.392 421.76c-27.008 34.368-82.176 13.696-80-29.952L553.6 615.68l-124.928-1.152a44.8 44.8 0 0 1-34.816-72.512l330.56-420.736z" fill="#ffffff" p-id="37660"></path></svg>