<?xml version="1.0" standalone="no"?><!DOCTYPE svg PUBLIC "-//W3C//DTD SVG 1.1//EN" "http://www.w3.org/Graphics/SVG/1.1/DTD/svg11.dtd"><svg t="1781374541235" class="icon" viewBox="0 0 1024 1024" version="1.1" xmlns="http://www.w3.org/2000/svg" p-id="2494" xmlns:xlink="http://www.w3.org/1999/xlink" width="200" height="200"><path d="M303.542857 73.142857a25.6 25.6 0 0 1 25.6 25.6v67.145143h365.714286V98.742857A25.6 25.6 0 0 1 720.457143 73.142857h58.514286a25.6 25.6 0 0 1 25.6 25.6v67.145143h18.285714c70.656 0 128 55.954286 128 124.928v535.186286c0 68.973714-57.344 124.854857-128 124.854857h-621.714286C130.486857 950.857143 73.142857 894.976 73.142857 826.002286V290.816c0-68.973714 57.344-124.928 128-124.928H219.428571V98.742857A25.6 25.6 0 0 1 245.028571 73.142857h58.514286z m519.314286 186.441143h-621.714286a31.817143 31.817143 0 0 0-31.451428 25.6l-0.512 5.632v535.186286c0 15.36 11.264 28.086857 26.185142 30.72l5.778286 0.512h621.714286a31.817143 31.817143 0 0 0 31.451428-25.6l0.585143-5.632V290.816a31.451429 31.451429 0 0 0-26.331428-30.72l-5.705143-0.512zM579.437714 425.252571v320.950858H484.498286v-166.765715l-0.219429-13.604571-0.585143-15.579429-0.585143-7.168-0.731428-4.608c-1.462857-5.412571-5.339429-9.508571-11.702857-12.434285a69.266286 69.266286 0 0 0-20.992-3.584l-13.531429-0.512h-17.261714v-40.740572c45.933714-9.069714 80.749714-27.794286 104.594286-55.954286h55.954285z" fill="#333333" p-id="2495"></path></svg>