<?xml version="1.0" standalone="no"?><!DOCTYPE svg PUBLIC "-//W3C//DTD SVG 1.1//EN" "http://www.w3.org/Graphics/SVG/1.1/DTD/svg11.dtd"><svg t="1781374585064" class="icon" viewBox="0 0 1024 1024" version="1.1" xmlns="http://www.w3.org/2000/svg" p-id="3034" xmlns:xlink="http://www.w3.org/1999/xlink" width="200" height="200"><path d="M219.428571 98.742857A25.6 25.6 0 0 1 245.028571 73.142857h58.514286a25.6 25.6 0 0 1 25.6 25.6v67.145143h365.714286V98.742857A25.6 25.6 0 0 1 720.457143 73.142857h58.514286a25.6 25.6 0 0 1 25.6 25.6v67.145143h18.285714c70.656 0 128 55.954286 128 124.928v535.186286c0 68.973714-57.344 124.854857-128 124.854857h-621.714286C130.486857 950.857143 73.142857 894.976 73.142857 826.002286V290.816c0-68.973714 57.344-124.928 128-124.928H219.428571V98.742857z m603.428572 160.841143h-621.714286a31.817143 31.817143 0 0 0-31.451428 25.6l-0.512 5.632v535.186286c0 15.36 11.264 28.086857 26.185142 30.72l5.778286 0.512h621.714286a31.817143 31.817143 0 0 0 31.451428-25.6l0.585143-5.632V290.816a31.451429 31.451429 0 0 0-26.331428-30.72l-5.705143-0.512z" fill="#333333" p-id="3035"></path><path d="M489.472 647.606857c0-33.133714-3.145143-54.125714-9.508571-63.122286a52.662857 52.662857 0 0 0-28.818286-19.309714c13.092571-6.363429 22.162286-13.385143 27.355428-21.065143 5.266286-7.753143 7.826286-20.187429 7.826286-37.449143 0-25.6-7.241143-45.494857-21.723428-59.904-14.482286-14.336-41.984-21.504-82.578286-21.504-32.475429 0-56.100571 5.12-70.948572 15.506286-14.921143 10.386286-22.381714 30.354286-22.381714 59.830857v26.331429H373.76v-25.380572c0-11.849143 1.097143-19.529143 3.218286-23.186285 2.194286-3.657143 6.217143-5.412571 12.141714-5.412572 5.193143 0 8.996571 1.682286 11.483429 5.12 2.486857 3.437714 3.657143 10.605714 3.657142 21.357715v17.188571a57.490286 57.490286 0 0 1-3.145142 22.089143 15.725714 15.725714 0 0 1-10.313143 9.216c-4.754286 1.389714-17.261714 2.048-37.522286 2.048v44.836571c16.603429 0.292571 27.794286 1.243429 33.499429 2.925715a21.284571 21.284571 0 0 1 13.092571 10.825142c2.925714 5.485714 4.388571 14.116571 4.388571 25.892572v21.357714c0 19.382857-1.024 31.305143-3.145142 35.84-2.121143 4.608-6.436571 6.948571-13.019429 6.948572-6.070857 0-9.947429-1.828571-11.702857-5.485715-1.755429-3.657143-2.633143-12.068571-2.633143-25.453714v-50.176H288.694857v24.429714c0 29.403429 2.413714 50.029714 7.314286 61.878857 4.754286 11.922286 14.921143 21.942857 30.281143 30.134858 15.36 8.192 36.571429 12.288 63.561143 12.288 23.698286 0 43.154286-3.510857 58.368-10.532572a62.537143 62.537143 0 0 0 32.036571-30.939428c6.144-13.531429 9.216-32.621714 9.216-57.124572zM733.842286 689.737143c2.779429-10.605714 4.242286-27.648 4.242285-51.053714V535.698286c0-23.405714-1.316571-40.448-3.949714-51.2a68.754286 68.754286 0 0 0-14.848-28.745143c-7.314286-8.484571-18.285714-15.725714-33.060571-21.650286a133.851429 133.851429 0 0 0-50.176-8.850286c-22.893714 0-42.422857 4.242286-58.514286 12.8-16.091429 8.484571-26.770286 19.748571-32.182857 33.938286-5.412571 14.116571-8.045714 35.328-8.045714 63.634286v107.812571c0 21.723429 1.609143 37.595429 4.973714 47.542857 3.364571 10.020571 9.069714 19.529143 17.115428 28.525715a70.217143 70.217143 0 0 0 32.182858 19.968c13.531429 4.242286 30.427429 6.363429 50.834285 6.363428 15.36 0 29.403429-2.048 41.910857-6.070857a75.995429 75.995429 0 0 0 49.517715-49.956571z m-95.817143-217.014857c6.363429 0 10.532571 2.048 12.288 6.217143 1.755429 4.096 2.633143 14.409143 2.633143 30.793142V662.674286c0 15.140571-1.024 24.868571-2.925715 29.257143-2.048 4.242286-6.144 6.436571-12.434285 6.436571-6.363429 0-10.459429-1.828571-12.434286-5.558857-1.828571-3.657143-2.779429-14.482286-2.779429-32.402286v-150.674286c0-15.872 1.024-26.038857 3.072-30.427428 2.048-4.388571 6.217143-6.582857 12.507429-6.582857z" fill="#333333" p-id="3036"></path></svg>