<?xml version="1.0" standalone="no"?><!DOCTYPE svg PUBLIC "-//W3C//DTD SVG 1.1//EN" "http://www.w3.org/Graphics/SVG/1.1/DTD/svg11.dtd"><svg t="1770546795915" class="icon" viewBox="0 0 1024 1024" version="1.1" xmlns="http://www.w3.org/2000/svg" p-id="29005" xmlns:xlink="http://www.w3.org/1999/xlink" width="200" height="200"><path d="M520.904348 877.078261H218.156522V146.921739h365.078261V342.817391c0 26.713043 17.808696 48.973913 48.973913 48.973913H828.104348v138.017392H890.434783v-178.086957c0-31.165217-13.356522-57.878261-35.617392-80.13913l-146.921739-146.921739c-22.26087-22.26087-48.973913-35.617391-80.13913-35.617392H204.8c-8.904348-4.452174-13.356522 0-22.26087 0-17.808696 8.904348-26.713043 22.26087-26.713043 44.521739v756.869566c0 26.713043 17.808696 48.973913 48.973913 48.973913h320.556522v-62.330435z m120.208695-725.704348c8.904348 4.452174 13.356522 4.452174 22.26087 13.356522L810.295652 311.652174c4.452174 4.452174 8.904348 13.356522 13.356522 22.260869h-178.086957V151.373913z" fill="#ffffff" p-id="29006"></path><path d="M850.365217 725.704348h-106.852174v-111.304348c0-22.26087-17.808696-35.617391-35.617391-35.617391s-35.617391 17.808696-35.617391 35.617391v111.304348h-115.756522c-22.26087 0-35.617391 17.808696-35.617391 35.617391s17.808696 40.069565 35.617391 40.069565H667.826087v111.304348c0 22.26087 17.808696 35.617391 35.617391 35.617391s40.069565-17.808696 40.069565-40.069565V801.391304h111.304348c22.26087 0 35.617391-17.808696 35.617392-35.617391s-22.26087-40.069565-40.069566-40.069565z" fill="#ffffff" p-id="29007"></path></svg>