<?xml version="1.0" standalone="no"?><!DOCTYPE svg PUBLIC "-//W3C//DTD SVG 1.1//EN" "http://www.w3.org/Graphics/SVG/1.1/DTD/svg11.dtd"><svg t="1781632297522" class="icon" viewBox="0 0 1024 1024" version="1.1" xmlns="http://www.w3.org/2000/svg" p-id="32513" xmlns:xlink="http://www.w3.org/1999/xlink" width="200" height="200"><path d="M922.154667 547.370667h-275.072a98.048 98.048 0 0 0-98.005334 97.962666v275.328a97.536 97.536 0 0 0 98.005334 97.749334h275.072a98.005333 98.005333 0 0 0 97.962666-97.962667v-275.114667a98.005333 98.005333 0 0 0-97.962666-97.962666zM386.261333 1.706667H111.146667A98.005333 98.005333 0 0 0 13.184 99.669333v275.328c0 26.197333 10.24 50.730667 28.757333 69.290667a97.152 97.152 0 0 0 69.205334 28.458667h275.114666a98.005333 98.005333 0 0 0 97.962667-97.962667V99.669333A98.133333 98.133333 0 0 0 386.261333 1.706667z m4.906667 362.496a15.488 15.488 0 0 1-15.488 15.573333H121.514667a14.933333 14.933333 0 0 1-10.922667-4.650667 14.762667 14.762667 0 0 1-4.437333-10.794666V110.165333c0-8.661333 6.954667-15.616 15.488-15.616h254.08c8.533333 0 15.488 6.954667 15.488 15.616v254.037334zM979.498667 123.008h-4.181334a40.789333 40.789333 0 0 0-40.661333 40.618667v63.616c-82.346667-95.104-194.432-157.909333-318.677333-181.717334a44.458667 44.458667 0 0 0-15.573334-3.84c-1.152-0.213333-2.304-0.682667-3.413333-0.810666v0.341333a43.946667 43.946667 0 0 0 0 87.808v0.469333c145.621333 26.709333 271.573333 118.101333 339.626667 254.208a41.344 41.344 0 0 0 16.298666 16.725334 39.552 39.552 0 0 0 22.4 7.765333h4.181334c22.314667 0 40.618667-18.346667 40.618666-40.618667V163.84a40.832 40.832 0 0 0-40.618666-40.832z m-542.72 780.629333c-0.213333 0-0.341333 0.128-0.469334 0.128C286.933333 880.896 156.330667 790.186667 85.333333 653.098667a40.533333 40.533333 0 0 0-37.674666-25.898667h-4.181334a40.405333 40.405333 0 0 0-38.229333 28.672c-1.109333 2.816-1.365333 5.930667-1.792 9.002667-0.128 0.981333-0.554667 1.92-0.554667 2.901333v2.090667c0 2.005333-0.213333 3.968 0 6.016v195.712c0 22.272 18.304 40.618667 40.618667 40.618666h4.224c22.314667 0 40.618667-18.346667 40.618667-40.618666V808.533333c85.546667 96.512 201.941333 158.592 330.197333 179.413334 5.546667 2.645333 12.842667 2.645333 19.456 2.645333 0.213333 0 0.341333-0.128 0.469333-0.128h0.213334v-0.085333c24.106667-0.469333 42.453333-18.346667 42.453333-42.453334a44.373333 44.373333 0 0 0-44.373333-44.288z" fill="#333333" p-id="32514"></path></svg>