<?xml version="1.0" standalone="no"?><!DOCTYPE svg PUBLIC "-//W3C//DTD SVG 1.1//EN" "http://www.w3.org/Graphics/SVG/1.1/DTD/svg11.dtd"><svg t="1784398083794" class="icon" viewBox="0 0 1080 1024" version="1.1" xmlns="http://www.w3.org/2000/svg" p-id="18401" xmlns:xlink="http://www.w3.org/1999/xlink" width="210.9375" height="200"><path d="M925.866667 77.198222h-125.326223v121.799111c0 36.977778-30.264889 67.413333-67.527111 67.413334a67.299556 67.299556 0 0 1-67.527111-67.413334V77.198222h-250.624v121.799111c0 36.977778-30.264889 67.413333-67.527111 67.413334a67.299556 67.299556 0 0 1-67.527111-67.413334V77.198222H154.481778C69.688889 77.198222 0 146.801778 0 231.623111v617.642667c0 84.821333 69.688889 154.424889 154.481778 154.424889H926.435556c84.792889 0 154.481778-69.603556 154.481777-154.424889V231.623111c-0.540444-84.821333-70.229333-154.424889-155.022222-154.424889z m77.255111 772.067556a77.368889 77.368889 0 0 1-77.255111 77.198222H154.453333a77.368889 77.368889 0 0 1-77.226666-77.198222V386.019556h925.866666v463.246222zM733.013333 231.623111c21.048889 0 38.371556-17.408 38.371556-38.599111V38.599111C771.384889 17.408 754.062222 0 733.013333 0c-21.048889 0-38.343111 17.408-38.343111 38.599111v154.424889c0 21.191111 17.265778 38.599111 38.343111 38.599111z m-386.218666 0c21.048889 0 38.343111-17.408 38.343111-38.599111V38.599111C385.137778 17.408 367.872 0 346.794667 0c-21.048889 0-38.343111 17.408-38.343111 38.599111v154.424889c0 21.191111 17.265778 38.599111 38.343111 38.599111z" fill="#333333" p-id="18402"></path><path d="M316.984889 540.444444l-24.917333 105.472a595.342222 595.342222 0 0 0-12.970667 90.453334h-3.413333a582.115556 582.115556 0 0 0-14.336-90.794667L235.747556 540.444444H142.222222v266.24h56.32V702.577778c0-37.205333-0.682667-73.045333-3.413333-109.226667h3.413333l51.882667 213.333333h50.176l50.858667-213.333333h3.413333c-3.072 36.522667-3.754667 72.704-3.754667 109.226667v104.106666h56.32V540.444444h-90.453333z m223.232 68.266667c-53.930667 0-95.232 30.72-95.232 103.424 0 67.584 42.325333 97.962667 95.232 97.962667 53.930667 0 95.232-30.72 95.232-103.424 0-67.584-42.325333-97.962667-95.232-97.962667z m0 158.72c-25.258667 0-35.498667-25.6-35.498667-57.344 0-40.618667 11.605333-58.709333 35.498667-58.709333 25.258667 0 35.498667 25.6 35.498667 57.344 0 40.277333-11.605333 58.709333-35.498667 58.709333z m180.224-129.024v-26.282667H666.168889v194.56h58.026667v-119.466666c0-25.258667 12.970667-35.498667 29.696-35.498667 18.773333 0 26.965333 9.216 26.965333 35.498667v119.466666h58.026667v-131.754666c0-45.397333-26.965333-66.218667-61.781334-66.218667-24.576 0-44.714667 9.557333-55.978666 29.696h-0.682667z m188.757333 99.328a36.124444 36.124444 0 0 1 36.181334 35.84c0 18.773333-16.042667 36.522667-36.181334 36.522667-20.48 0-36.181333-16.384-36.181333-36.522667 0-19.456 15.701333-35.84 36.181333-35.84z" fill="#333333" p-id="18403"></path></svg>