<?xml version="1.0" standalone="no"?><!DOCTYPE svg PUBLIC "-//W3C//DTD SVG 1.1//EN" "http://www.w3.org/Graphics/SVG/1.1/DTD/svg11.dtd"><svg t="1770393753947" class="icon" viewBox="0 0 1024 1024" version="1.1" xmlns="http://www.w3.org/2000/svg" p-id="8883" xmlns:xlink="http://www.w3.org/1999/xlink" width="200" height="200"><path d="M643.295 208.448l-237.39 131.58-0.426-0.205c-36.304-17.444-71.182-25.785-104.676-24.089-41.783 2.115-79.788 19.842-112.743 52.799-12.372 12.371-12.495 32.353-0.37 44.877l6.857 6.863L333.694 559.42 94.221 885.041l-0.635 0.89c-20.37 29.41 16.22 65.4 45.437 43.8l324.833-240.149 146.358 146.359c12.497 12.497 32.759 12.497 45.256 0 33.005-33.007 50.286-69.869 52.121-111.104l0.046-1.11c1.206-31.895-6.714-65.472-23.224-103.1l-0.81-1.833 132.186-237.893 83.666 12.004c30.45 4.37 48.925-32.55 27.172-54.303l-241.23-241.23c-21.774-21.774-58.726-3.24-54.294 27.233l12.192 83.843z m65.015 2.347l105.11 105.11-10.355-1.485a32 32 0 0 0-32.517 16.133L619.721 601.997a32 32 0 0 0-0.76 29.63l1.049 2.155c27.34 56.541 31.353 96.212 10.677 131.115l-0.379 0.628-140.685-140.686-0.338-0.333c-11.218-10.893-28.702-12.094-41.313-2.77l-176.778 130.69L401.54 575.191c9.367-12.737 8.028-30.406-3.152-41.586L258.543 393.76l1.3-0.768c36.698-21.343 79.06-17.238 131.232 11.373a32 32 0 0 0 30.9-0.07l271.683-150.587a32 32 0 0 0 16.154-32.594l-1.502-10.319z" p-id="8884" fill="#ffffff"></path></svg>