<?xml version="1.0" standalone="no"?><!DOCTYPE svg PUBLIC "-//W3C//DTD SVG 1.1//EN" "http://www.w3.org/Graphics/SVG/1.1/DTD/svg11.dtd"><svg t="1783492003170" class="icon" viewBox="0 0 1024 1024" version="1.1" xmlns="http://www.w3.org/2000/svg" p-id="6472" xmlns:xlink="http://www.w3.org/1999/xlink" width="200" height="200"><path d="M770.756267 812.6976a27.4944 27.4944 0 0 1-19.720534-8.260267 27.477333 27.477333 0 0 1 0.196267-38.5024c88.797867-89.6256 115.541333-198.877867 73.454933-299.869866-44.194133-105.984-154.862933-180.224-269.7216-181.307734l0.196267 61.013334c0.0512 15.394133-6.152533 24.8832-11.409067 30.139733-12.629333 12.637867-33.4336 13.764267-50.2016 2.013867l-186.282666-131.421867c-11.904-8.456533-19.0208-21.1456-19.566934-34.858667s5.5552-26.897067 16.759467-36.138666l24.533333-20.548267c0.836267-1.032533 1.774933-2.065067 2.807467-3.003733l14.549333-11.460267 145.390934-121.344C502.1184 10.402133 512.093867 8.533333 518.6304 8.533333c17.5616 0 35.396267 13.6704 35.498667 39.7824l0.145066 42.5216c158.967467 7.5264 285.960533 95.035733 342.2464 237.329067 65.0496 164.266667 22.033067 356.010667-106.9824 477.115733a27.409067 27.409067 0 0 1-18.781866 7.415467zM552.507733 229.8368c130.389333 0 256.699733 79.803733 314.274134 196.224a370.449067 370.449067 0 0 0-21.290667-77.687467c-51.131733-129.109333-165.495467-203.1616-313.728-203.1616l-4.5824 0.0512c-6.536533-0.64-14.3616-2.807467-19.5584-7.918933a27.648 27.648 0 0 1-8.1664-19.473067l-0.1024-33.527466-129.988267 107.776a40.533333 40.533333 0 0 1-3.0976 3.242666L349.696 209.237333l150.4 106.103467-0.145067-56.8832a27.477333 27.477333 0 0 1 25.173334-27.485867 339.7888 339.7888 0 0 1 27.383466-1.134933zM510.865067 1015.466667a35.2 35.2 0 0 1-25.224534-10.427734c-5.265067-5.256533-11.502933-14.754133-11.460266-30.1824l0.1536-51.524266c-161.169067-6.101333-290.030933-93.909333-346.871467-237.585067-65.041067-164.206933-22.024533-355.959467 106.990933-477.1072a27.502933 27.502933 0 0 1 38.493867 0.887467 27.349333 27.349333 0 0 1-0.145067 38.442666c-88.789333 89.685333-115.584 198.929067-73.506133 299.912534 44.987733 107.776 158.071467 183.3984 275.729067 181.333333l0.196266-51.822933c0.0512-26.0608 17.954133-39.7312 35.498667-39.7312 6.493867 0 16.375467 1.8688 26.8032 10.5216L724.992 804.6336c11.118933 9.2416 17.160533 22.4256 16.622933 36.087467-0.494933 13.764267-7.6288 26.461867-19.524266 34.816l-186.282667 131.464533c-7.8336 5.512533-16.494933 8.465067-24.942933 8.465067z m-8.942934-146.8672c7.176533 0 14.1056 2.858667 19.217067 7.927466 5.307733 5.154133 8.2688 12.245333 8.2688 19.6608l-0.196267 48.238934L679.6032 838.314667 529.9968 713.386667l-0.1536 41.7792a27.451733 27.451733 0 0 1-24.6784 27.246933c-142.976 14.5408-285.4144-68.104533-348.0064-194.56a371.0208 371.0208 0 0 0 21.333333 77.678933C229.623467 794.6496 343.936 868.693333 492.219733 868.693333l9.096534-0.1024 0.605866 0.008534z" fill="#333333" p-id="6473"></path></svg>