<?xml version="1.0" standalone="no"?><!DOCTYPE svg PUBLIC "-//W3C//DTD SVG 1.1//EN" "http://www.w3.org/Graphics/SVG/1.1/DTD/svg11.dtd"><svg t="1770902304657" class="icon" viewBox="0 0 1024 1024" version="1.1" xmlns="http://www.w3.org/2000/svg" p-id="5780" xmlns:xlink="http://www.w3.org/1999/xlink" width="200" height="200"><path d="M443.52 289.984h219.072l-26.24-26.24a41.984 41.984 0 1 1 59.392-59.456l97.92 98.048a41.92 41.92 0 0 1 0 59.392l-97.92 97.984a41.856 41.856 0 0 1-71.68-29.696c0-11.584 4.672-22.08 12.288-29.696l26.24-26.304h-24.768v-0.064H502.336L443.52 290.048z m-221.632 18.176A252.096 252.096 0 0 0 64 542.08V640a41.984 41.984 0 1 0 84.032 0V542.016c0-77.568 52.544-142.848 123.968-162.176l-50.112-71.68z m514.112 399.488a168.064 168.064 0 0 0 140.032-165.632V444.032a41.984 41.984 0 1 1 83.968 0v97.92a252.16 252.16 0 0 1-173.12 239.488 96.896 96.896 0 0 0-5.76-9.344l-45.12-64.448z m-232.768 2.368H361.344l26.304-26.368a41.984 41.984 0 1 0-59.392-59.392L230.4 722.304a41.92 41.92 0 0 0 0 59.392l97.92 97.984a41.92 41.92 0 1 0 59.392-59.392l-26.24-26.24h200.64l-58.88-84.032zM257.92 277.248a47.872 47.872 0 0 1 11.712-66.88 47.936 47.936 0 0 1 66.88 11.84l385.408 550.4a47.872 47.872 0 0 1-11.776 66.88 47.936 47.936 0 0 1-66.88-11.84l-385.344-550.4z" fill="#ffffff" p-id="5781"></path></svg>