<?xml version="1.0" standalone="no"?><!DOCTYPE svg PUBLIC "-//W3C//DTD SVG 1.1//EN" "http://www.w3.org/Graphics/SVG/1.1/DTD/svg11.dtd"><svg t="1784398194589" class="icon" viewBox="0 0 1080 1024" version="1.1" xmlns="http://www.w3.org/2000/svg" p-id="21869" xmlns:xlink="http://www.w3.org/1999/xlink" width="210.9375" height="200"><path d="M925.866667 77.198222h-125.326223v121.799111c0 36.977778-30.264889 67.413333-67.527111 67.413334a67.299556 67.299556 0 0 1-67.527111-67.413334V77.198222h-250.624v121.799111c0 36.977778-30.264889 67.413333-67.527111 67.413334a67.299556 67.299556 0 0 1-67.527111-67.413334V77.198222H154.481778C69.688889 77.198222 0 146.801778 0 231.623111v617.642667c0 84.821333 69.688889 154.424889 154.481778 154.424889H926.435556c84.792889 0 154.481778-69.603556 154.481777-154.424889V231.623111c-0.540444-84.821333-70.229333-154.424889-155.022222-154.424889z m77.255111 772.067556a77.368889 77.368889 0 0 1-77.255111 77.198222H154.453333a77.368889 77.368889 0 0 1-77.226666-77.198222V386.019556h925.866666v463.246222zM733.013333 231.623111c21.048889 0 38.371556-17.408 38.371556-38.599111V38.599111C771.384889 17.408 754.062222 0 733.013333 0c-21.048889 0-38.343111 17.408-38.343111 38.599111v154.424889c0 21.191111 17.265778 38.599111 38.343111 38.599111z m-386.218666 0c21.048889 0 38.343111-17.408 38.343111-38.599111V38.599111C385.137778 17.408 367.872 0 346.794667 0c-21.048889 0-38.343111 17.408-38.343111 38.599111v154.424889c0 21.191111 17.265778 38.599111 38.343111 38.599111z" fill="#333333" p-id="21870"></path><path d="M227.555556 729.884444c7.168 55.637333 42.666667 83.968 105.472 83.968 60.074667 0 95.914667-31.744 95.914666-81.237333 0-41.955556-22.016-63.146667-73.898666-80.782222l-6.656-2.161778c-38.229333-12.288-50.858667-21.845333-50.858667-39.936 0-16.384 9.557333-27.306667 26.965333-27.306667 22.528 0 35.157333 16.725333 37.546667 48.810667l60.757333-12.629333C415.288889 567.751111 381.838222 540.444444 327.224889 540.444444c-53.930667 0-89.429333 30.037333-89.429333 80.213334 0 38.855111 22.784 62.094222 67.185777 78.961778l17.92 6.485333c32.483556 12.088889 41.870222 19.911111 41.870223 37.091555 0 17.066667-11.946667 25.258667-27.989334 25.258667-28.330667 0-41.984-16.384-46.421333-46.421333L227.555556 729.884444z m393.216-48.128c0-44.032-30.037333-69.632-78.848-69.632-43.690667 0-72.704 21.162667-82.261334 60.416l49.493334 9.216c3.754667-21.845333 12.629333-31.744 28.672-31.744 15.701333 0 24.576 10.922667 24.576 34.474667v11.605333a164.295111 164.295111 0 0 0-27.306667-2.389333c-51.541333 0-83.968 21.504-83.968 61.781333 0 36.522667 24.576 58.026667 64.853333 58.026667 24.917333 0 43.008-8.192 54.613334-25.6 4.778667 14.677333 15.018667 22.186667 37.205333 22.186667 11.605333 0 20.138667-1.365333 31.061333-5.461334v-40.96c-0.682667 0.341333-1.706667 0.341333-4.778666 0.341334-8.874667 0-13.312-5.802667-13.312-18.090667v-64.170667z m-88.064 92.501334c-14.677333 0-23.552-8.533333-23.552-20.138667 0-14.677333 11.264-23.210667 29.013333-23.210667 8.533333 0 17.749333 1.024 24.234667 2.730667 0 28.330667-9.898667 40.618667-29.696 40.618667z m197.290666-117.76h41.984v-40.96h-41.984v-58.368l-56.32 32.426666v25.941334H645.688889v40.96h27.989333v97.28c0 40.618667 25.941333 59.733333 62.805334 59.733333 12.970667 0 27.989333-2.048 38.229333-5.461333v-40.96c-3.754667 1.365333-10.24 2.730667-16.384 2.730666-19.456 0-28.330667-6.485333-28.330667-25.258666V656.497778z m97.962667 84.650666a36.124444 36.124444 0 0 1 36.181333 35.84c0 18.773333-16.042667 36.522667-36.181333 36.522667-20.48 0-36.181333-16.384-36.181333-36.522667 0-19.456 15.701333-35.84 36.181333-35.84z" fill="#333333" p-id="21871"></path></svg>