<?xml version="1.0" standalone="no"?><!DOCTYPE svg PUBLIC "-//W3C//DTD SVG 1.1//EN" "http://www.w3.org/Graphics/SVG/1.1/DTD/svg11.dtd"><svg t="1781630593034" class="icon" viewBox="0 0 1024 1024" version="1.1" xmlns="http://www.w3.org/2000/svg" p-id="14017" xmlns:xlink="http://www.w3.org/1999/xlink" width="200" height="200"><path d="M819.2 51.2a153.6 153.6 0 0 1 153.6 153.6v102.4a153.6 153.6 0 0 1-153.6 153.6H204.8a153.6 153.6 0 0 1-153.6-153.6V204.8a153.6 153.6 0 0 1 153.6-153.6h614.4z m0 102.4H204.8a51.2 51.2 0 0 0-50.8416 45.2096L153.6 204.8v102.4a51.2 51.2 0 0 0 45.2096 50.8416L204.8 358.4h614.4a51.2 51.2 0 0 0 50.8416-45.2096L870.4 307.2V204.8a51.2 51.2 0 0 0-45.2096-50.8416L819.2 153.6zM819.2 563.2a153.6 153.6 0 0 1 153.6 153.6v102.4a153.6 153.6 0 0 1-153.6 153.6H204.8a153.6 153.6 0 0 1-153.6-153.6v-102.4a153.6 153.6 0 0 1 153.6-153.6h614.4z m0 102.4H204.8a51.2 51.2 0 0 0-50.8416 45.2096L153.6 716.8v102.4a51.2 51.2 0 0 0 45.2096 50.8416L204.8 870.4h614.4a51.2 51.2 0 0 0 50.8416-45.2096L870.4 819.2v-102.4a51.2 51.2 0 0 0-45.2096-50.8416L819.2 665.6z" fill="#333333" p-id="14018"></path></svg>