<?xml version="1.0" standalone="no"?><!DOCTYPE svg PUBLIC "-//W3C//DTD SVG 1.1//EN" "http://www.w3.org/Graphics/SVG/1.1/DTD/svg11.dtd"><svg t="1770064064022" class="icon" viewBox="0 0 1029 1024" version="1.1" xmlns="http://www.w3.org/2000/svg" p-id="53372" xmlns:xlink="http://www.w3.org/1999/xlink" width="200.9765625" height="200"><path d="M718.219486 217.961245a353.686032 353.686032 0 0 0-500.291311 0 353.686032 353.686032 0 0 0 250.177485 603.990835 352.60384 352.60384 0 0 0 250.177485-103.635864 352.60384 352.60384 0 0 0 103.572206-250.177485 352.60384 352.60384 0 0 0-103.635865-250.177486zM140.965177 795.342871A462.73286 462.73286 0 1 1 795.246142 140.807273 462.73286 462.73286 0 0 1 140.965177 795.215555z m864.353663 210.009039a62.958151 62.958151 0 0 1-89.376384 0L826.566072 915.975526a63.149126 63.149126 0 1 1 89.312725-89.312725l89.376384 89.312725a62.830834 62.830834 0 0 1 0 89.376384z" fill="#ffffff" p-id="53373"></path></svg>