<?xml version="1.0" standalone="no"?><!DOCTYPE svg PUBLIC "-//W3C//DTD SVG 1.1//EN" "http://www.w3.org/Graphics/SVG/1.1/DTD/svg11.dtd"><svg t="1784357344026" class="icon" viewBox="-64 -64 1152 1152" version="1.1" xmlns="http://www.w3.org/2000/svg" p-id="6138" xmlns:xlink="http://www.w3.org/1999/xlink" width="200" height="200"><path d="M1024 931.328c0 51.2-41.425455 92.672-92.672 92.672H92.625455A92.625455 92.625455 0 0 1 0 931.328V92.625455C0 41.472 41.425455 0 92.672 0H931.374545C982.528 0 1024 41.425455 1024 92.672V931.374545zM884.363636 977.454545a93.090909 93.090909 0 0 0 93.090909-93.090909V139.636364a93.090909 93.090909 0 0 0-93.090909-93.090909H139.636364a93.090909 93.090909 0 0 0-93.090909 93.090909v744.727272a93.090909 93.090909 0 0 0 93.090909 93.090909h744.727272z" fill="#333333" p-id="6139"></path><path d="M706.513455 643.630545H278.248727l222.72-323.304727z" fill="#333333" p-id="6140"></path></svg>
