<?xml version="1.0" standalone="no"?><!DOCTYPE svg PUBLIC "-//W3C//DTD SVG 1.1//EN" "http://www.w3.org/Graphics/SVG/1.1/DTD/svg11.dtd"><svg t="1770063891466" class="icon" viewBox="0 0 1024 1024" version="1.1" xmlns="http://www.w3.org/2000/svg" p-id="51290" xmlns:xlink="http://www.w3.org/1999/xlink" width="200" height="200"><path d="M762.963456 181.248L907.859456 358.4 870.483456 409.6h-123.904v454.656H277.587456V409.6H153.683456l-37.376-51.2L261.203456 181.248a381.44 381.44 0 0 0 243.2 109.568h15.36a381.44 381.44 0 0 0 243.2-109.568m0-130.048a51.2 51.2 0 0 0-42.496 21.504A276.48 276.48 0 0 1 512.083456 188.928a276.48 276.48 0 0 1-209.408-116.224A51.2 51.2 0 0 0 260.179456 51.2a51.2 51.2 0 0 0-40.96 19.456L11.859456 322.56a51.2 51.2 0 0 0 0 65.536l77.824 102.4a51.2 51.2 0 0 0 41.472 20.48h44.544v403.456a51.2 51.2 0 0 0 51.2 51.2h570.88a51.2 51.2 0 0 0 51.2-51.2V512h44.544a51.2 51.2 0 0 0 41.472-20.48l77.824-102.4a51.2 51.2 0 0 0 0-65.536l-208.384-253.44a51.2 51.2 0 0 0-40.96-19.456z" p-id="51291" fill="#ffffff"></path></svg>