<?xml version="1.0" standalone="no"?><!DOCTYPE svg PUBLIC "-//W3C//DTD SVG 1.1//EN" "http://www.w3.org/Graphics/SVG/1.1/DTD/svg11.dtd"><svg t="1770063755579" class="icon" viewBox="0 0 1024 1024" version="1.1" xmlns="http://www.w3.org/2000/svg" p-id="44643" xmlns:xlink="http://www.w3.org/1999/xlink" width="200" height="200"><path d="M635.56 376.48c-22.71-6.09-46.68 3.84-58.43 24.2L474.31 578.77c-14.34 24.85-5.83 56.62 19.01 70.96 24.84 14.35 56.62 5.83 70.96-19.01l5.89-10.19v203.64c0 28.69 23.26 51.95 51.95 51.95s51.95-23.26 51.95-51.95V426.65c0-23.51-15.8-44.09-38.51-50.17zM936.02 601.09c-24.84-14.35-56.62-5.83-70.96 19.01l-5.89 10.19V426.65c0-28.69-23.26-51.95-51.95-51.95s-51.95 23.26-51.95 51.95v397.52c0 23.51 15.79 44.09 38.5 50.18 4.47 1.2 8.99 1.78 13.45 1.78 18.22 0 35.54-9.62 44.98-25.98l102.82-178.09c14.36-24.86 5.84-56.63-19-70.97zM113.95 459.57h321.83c28.69 0 51.95-23.26 51.95-51.95s-23.26-51.95-51.95-51.95H113.95c-28.69 0-51.95 23.26-51.95 51.95s23.26 51.95 51.95 51.95zM789.28 199.83c0-28.69-23.26-51.95-51.95-51.95H113.95c-28.69 0-51.95 23.26-51.95 51.95s23.26 51.95 51.95 51.95h623.38c28.69-0.01 51.95-23.26 51.95-51.95zM113.95 667.36H339.8c28.69 0 51.95-23.26 51.95-51.95s-23.26-51.95-51.95-51.95H113.95c-28.69 0-51.95 23.26-51.95 51.95s23.26 51.95 51.95 51.95zM390.49 771.26H113.95c-28.69 0-51.95 23.26-51.95 51.95s23.26 51.95 51.95 51.95h276.54c28.69 0 51.95-23.26 51.95-51.95s-23.26-51.95-51.95-51.95z" p-id="44644" fill="#ffffff"></path></svg>