<?xml version="1.0" standalone="no"?><!DOCTYPE svg PUBLIC "-//W3C//DTD SVG 1.1//EN" "http://www.w3.org/Graphics/SVG/1.1/DTD/svg11.dtd"><svg t="1773935148912" class="icon" viewBox="0 0 1024 1024" version="1.1" xmlns="http://www.w3.org/2000/svg" p-id="2897" xmlns:xlink="http://www.w3.org/1999/xlink" width="200" height="200"><path d="M960 696.212V160c0-53.02-42.98-96-96-96H160C106.98 64 64 106.98 64 160v703.976c0 53.02 42.98 96 96 96h536.236a96 96 0 0 0 67.882-28.118l167.764-167.764A96 96 0 0 0 960 696.212z m-256 160v-152.236h152.236L704 856.212zM864 160v447.976H656c-26.51 0-48 21.49-48 48v208H160V160h704z" fill="#ffffff" p-id="2898"></path></svg>