<?xml version="1.0" standalone="no"?><!DOCTYPE svg PUBLIC "-//W3C//DTD SVG 1.1//EN" "http://www.w3.org/Graphics/SVG/1.1/DTD/svg11.dtd"><svg t="1784398216740" class="icon" viewBox="0 0 1080 1024" version="1.1" xmlns="http://www.w3.org/2000/svg" p-id="23385" xmlns:xlink="http://www.w3.org/1999/xlink" width="210.9375" height="200"><path d="M925.866667 77.198222h-125.326223v121.799111c0 36.977778-30.264889 67.413333-67.527111 67.413334a67.299556 67.299556 0 0 1-67.527111-67.413334V77.198222h-250.624v121.799111c0 36.977778-30.264889 67.413333-67.527111 67.413334a67.299556 67.299556 0 0 1-67.527111-67.413334V77.198222H154.481778C69.688889 77.198222 0 146.801778 0 231.623111v617.642667c0 84.821333 69.688889 154.424889 154.481778 154.424889H926.435556c84.792889 0 154.481778-69.603556 154.481777-154.424889V231.623111c-0.540444-84.821333-70.229333-154.424889-155.022222-154.424889z m77.255111 772.067556a77.368889 77.368889 0 0 1-77.255111 77.198222H154.453333a77.368889 77.368889 0 0 1-77.226666-77.198222V386.019556h925.866666v463.246222zM733.013333 231.623111c21.048889 0 38.371556-17.408 38.371556-38.599111V38.599111C771.384889 17.408 754.062222 0 733.013333 0c-21.048889 0-38.343111 17.408-38.343111 38.599111v154.424889c0 21.191111 17.265778 38.599111 38.343111 38.599111z m-386.218666 0c21.048889 0 38.343111-17.408 38.343111-38.599111V38.599111C385.137778 17.408 367.872 0 346.794667 0c-21.048889 0-38.343111 17.408-38.343111 38.599111v154.424889c0 21.191111 17.265778 38.599111 38.343111 38.599111z" fill="#333333" p-id="23386"></path><path d="M170.666667 729.884444c7.168 55.637333 42.666667 83.968 105.472 83.968 60.074667 0 95.914667-31.744 95.914666-81.237333 0-41.955556-22.016-63.146667-73.898666-80.782222l-6.656-2.161778c-38.229333-12.288-50.858667-21.845333-50.858667-39.936 0-16.384 9.557333-27.306667 26.965333-27.306667 22.528 0 35.157333 16.725333 37.546667 48.810667l60.757333-12.629333C358.4 567.751111 324.949333 540.444444 270.336 540.444444c-53.930667 0-89.429333 30.037333-89.429333 80.213334 0 38.855111 22.784 62.094222 67.185777 78.961778l17.92 6.485333c32.483556 12.088889 41.870222 19.911111 41.870223 37.091555 0 17.066667-11.946667 25.258667-27.989334 25.258667-28.330667 0-41.984-16.384-46.421333-46.421333L170.666667 729.884444z m346.794666-114.346666v119.466666c0 25.258667-12.970667 35.498667-29.696 35.498667-18.773333 0-26.965333-9.216-26.965333-35.498667v-119.466666h-58.026667v131.754666c0 45.397333 26.965333 66.218667 61.781334 66.218667 24.576 0 44.714667-9.557333 55.978666-29.696h0.682667v26.282667h54.272v-194.56h-58.026667z m153.258667 26.282666v-26.282666h-54.272v194.56h58.026667v-119.466667c0-25.258667 12.970667-35.498667 29.696-35.498667 18.773333 0 26.965333 9.216 26.965333 35.498667v119.466667h58.026667v-131.754667c0-45.397333-26.965333-66.218667-61.781334-66.218667-24.576 0-44.714667 9.557333-55.978666 29.696h-0.682667z m188.757333 99.328a36.124444 36.124444 0 0 1 36.181334 35.84c0 18.773333-16.042667 36.522667-36.181334 36.522667-20.48 0-36.181333-16.384-36.181333-36.522667 0-19.456 15.701333-35.84 36.181333-35.84z" fill="#333333" p-id="23387"></path></svg>