<?xml version="1.0" standalone="no"?><!DOCTYPE svg PUBLIC "-//W3C//DTD SVG 1.1//EN" "http://www.w3.org/Graphics/SVG/1.1/DTD/svg11.dtd"><svg t="1784398160181" class="icon" viewBox="0 0 1080 1024" version="1.1" xmlns="http://www.w3.org/2000/svg" p-id="20297" xmlns:xlink="http://www.w3.org/1999/xlink" width="210.9375" height="200"><path d="M925.866667 77.198222h-125.326223v121.799111c0 36.977778-30.264889 67.413333-67.527111 67.413334a67.299556 67.299556 0 0 1-67.527111-67.413334V77.198222h-250.624v121.799111c0 36.977778-30.264889 67.413333-67.527111 67.413334a67.299556 67.299556 0 0 1-67.527111-67.413334V77.198222H154.481778C69.688889 77.198222 0 146.801778 0 231.623111v617.642667c0 84.821333 69.688889 154.424889 154.481778 154.424889H926.435556c84.792889 0 154.481778-69.603556 154.481777-154.424889V231.623111c-0.540444-84.821333-70.229333-154.424889-155.022222-154.424889z m77.255111 772.067556a77.368889 77.368889 0 0 1-77.255111 77.198222H154.453333a77.368889 77.368889 0 0 1-77.226666-77.198222V386.019556h925.866666v463.246222zM733.013333 231.623111c21.048889 0 38.371556-17.408 38.371556-38.599111V38.599111C771.384889 17.408 754.062222 0 733.013333 0c-21.048889 0-38.343111 17.408-38.343111 38.599111v154.424889c0 21.191111 17.265778 38.599111 38.343111 38.599111z m-386.218666 0c21.048889 0 38.343111-17.408 38.343111-38.599111V38.599111C385.137778 17.408 367.872 0 346.794667 0c-21.048889 0-38.343111 17.408-38.343111 38.599111v154.424889c0 21.191111 17.265778 38.599111 38.343111 38.599111z" fill="#333333" p-id="20298"></path><path d="M318.577778 518.826667H113.777778v49.493333h71.68v216.746667h61.44v-216.746667h71.68v-49.493333z m76.458666 96.597333h-2.048l1.137778-6.542222c1.336889-9.272889 2.958222-25.315556 2.958222-48.412445V512h-58.026666v273.066667h58.026666v-119.466667c0-25.258667 12.970667-35.498667 29.696-35.498667 18.773333 0 26.965333 9.216 26.965334 35.498667v119.466667h58.026666v-131.754667c0-45.397333-26.965333-66.218667-61.781333-66.218667-23.893333 0-43.690667 9.216-54.954667 28.330667z m272.384-24.917333v119.466666c0 25.258667-12.970667 35.498667-29.696 35.498667-18.773333 0-26.965333-9.216-26.965333-35.498667v-119.466666h-58.026667v131.754666c0 45.397333 26.965333 66.218667 61.781334 66.218667 24.576 0 44.714667-9.557333 55.978666-29.696h0.682667v26.282667h54.272v-194.56h-58.026667z m146.090667 51.2v-51.2h-47.104v194.56h58.368v-105.130667c0-38.912 15.018667-45.397333 40.277333-45.397333 5.12 0 11.264 0.341333 16.384 1.365333v-48.469333a88.462222 88.462222 0 0 0-16.384-1.365334c-27.306667 0-44.373333 18.773333-49.834666 55.637334h-1.706667z m97.28 74.410666a36.124444 36.124444 0 0 1 36.181333 35.84c0 18.773333-16.042667 36.522667-36.181333 36.522667-20.48 0-36.181333-16.384-36.181333-36.522667 0-19.456 15.701333-35.84 36.181333-35.84z" fill="#333333" p-id="20299"></path></svg>