<?xml version="1.0" standalone="no"?><!DOCTYPE svg PUBLIC "-//W3C//DTD SVG 1.1//EN" "http://www.w3.org/Graphics/SVG/1.1/DTD/svg11.dtd"><svg t="1770988324829" class="icon" viewBox="0 0 1024 1024" version="1.1" xmlns="http://www.w3.org/2000/svg" p-id="13330" xmlns:xlink="http://www.w3.org/1999/xlink" width="200" height="200"><path d="M213.312 64h597.376a42.688 42.688 0 0 1 0 85.312H213.312a42.688 42.688 0 1 1 0-85.312zM482.56 225.088a42.688 42.688 0 0 1 58.88 0l297.344 283.264a64 64 0 0 1-44.16 110.336H704v234.624c0 45.696-35.904 83.008-81.088 85.248l-4.224 0.128H405.312A85.312 85.312 0 0 1 320 853.312V618.688H229.312a64 64 0 0 1-63.872-60.288l-0.128-3.712a64 64 0 0 1 19.84-46.336L482.56 225.088zM512 314.944L282.624 533.312h80c22.528 0 40.96 17.408 42.624 39.488l0.064 3.2v277.312h213.376V576c0-23.552 19.072-42.688 42.624-42.688h80L512 314.944z" p-id="13331" fill="#333333"></path></svg>