<?xml version="1.0" standalone="no"?><!DOCTYPE svg PUBLIC "-//W3C//DTD SVG 1.1//EN" "http://www.w3.org/Graphics/SVG/1.1/DTD/svg11.dtd"><svg t="1784398115650" class="icon" viewBox="0 0 1080 1024" version="1.1" xmlns="http://www.w3.org/2000/svg" p-id="4843" xmlns:xlink="http://www.w3.org/1999/xlink" width="210.9375" height="200"><path d="M925.866667 77.198222h-125.326223v121.799111c0 36.977778-30.264889 67.413333-67.527111 67.413334a67.299556 67.299556 0 0 1-67.527111-67.413334V77.198222h-250.624v121.799111c0 36.977778-30.264889 67.413333-67.527111 67.413334a67.299556 67.299556 0 0 1-67.527111-67.413334V77.198222H154.481778C69.688889 77.198222 0 146.801778 0 231.623111v617.642667c0 84.821333 69.688889 154.424889 154.481778 154.424889H926.435556c84.792889 0 154.481778-69.603556 154.481777-154.424889V231.623111c-0.540444-84.821333-70.229333-154.424889-155.022222-154.424889z m77.255111 772.067556a77.368889 77.368889 0 0 1-77.255111 77.198222H154.453333a77.368889 77.368889 0 0 1-77.226666-77.198222V386.019556h925.866666v463.246222zM733.013333 231.623111c21.048889 0 38.371556-17.408 38.371556-38.599111V38.599111C771.384889 17.408 754.062222 0 733.013333 0c-21.048889 0-38.343111 17.408-38.343111 38.599111v154.424889c0 21.191111 17.265778 38.599111 38.343111 38.599111z m-386.218666 0c21.048889 0 38.343111-17.408 38.343111-38.599111V38.599111C385.137778 17.408 367.872 0 346.794667 0c-21.048889 0-38.343111 17.408-38.343111 38.599111v154.424889c0 21.191111 17.265778 38.599111 38.343111 38.599111z" fill="#333333" p-id="4844"></path><path d="M318.577778 540.444444H113.777778v49.493334h71.68v216.746666h61.44v-216.746666h71.68V540.444444z m111.274666 71.68v119.466667c0 25.258667-12.970667 35.498667-29.696 35.498667-18.773333 0-26.965333-9.216-26.965333-35.498667v-119.466667h-58.026667v131.754667c0 45.397333 26.965333 66.218667 61.781334 66.218667 24.576 0 44.714667-9.557333 55.978666-29.696h0.682667v26.282666h54.272v-194.56h-58.026667z m262.826667 84.650667c0-48.469333-24.917333-88.064-87.04-88.064-49.834667 0-87.04 34.133333-87.04 103.765333 0 62.805333 33.109333 97.621333 91.818667 97.621334 33.109333 0 60.757333-9.898667 77.141333-49.152l-50.858667-15.36c-4.096 16.384-12.629333 25.258667-25.6 25.258666-17.408 0-30.378667-11.946667-33.792-44.373333h115.370667v-29.696z m-115.029333-9.216c3.754667-31.061333 16.725333-39.936 31.061333-39.936 16.725333 0 29.696 13.312 30.037333 39.936h-61.098666z m133.802666 70.314667c13.994667 36.864 43.690667 52.906667 82.602667 52.906666 49.834667 0 80.554667-24.234667 80.554667-63.488 0-34.218667-21.447111-50.062222-63.203556-62.435555l-6.087111-1.735111c-23.210667-6.485333-31.061333-12.288-31.061333-22.528 0-10.24 6.485333-16.042667 18.432-16.042667 15.36 0 27.989333 10.581333 32.768 29.013333l46.762666-14.336c-8.533333-33.109333-36.522667-51.2-77.141333-51.2-45.738667 0-75.093333 25.6-75.093333 63.146667 0 30.378667 16.384 45.397333 51.882666 56.32l11.235556 3.555556c26.083556 8.419556 37.233778 14.165333 37.233778 26.823111 0 8.874667-6.826667 15.36-20.138667 15.36-16.042667 0-29.696-9.898667-40.618667-33.109334l-48.128 17.749334z m221.525334-20.138667a36.124444 36.124444 0 0 1 36.181333 35.84c0 18.773333-16.042667 36.522667-36.181333 36.522667-20.48 0-36.181333-16.384-36.181334-36.522667 0-19.456 15.701333-35.84 36.181334-35.84z" fill="#333333" p-id="4845"></path></svg>