<?xml version="1.0" standalone="no"?><!DOCTYPE svg PUBLIC "-//W3C//DTD SVG 1.1//EN" "http://www.w3.org/Graphics/SVG/1.1/DTD/svg11.dtd"><svg t="1783153107246" class="icon" viewBox="0 0 1025 1024" version="1.1" xmlns="http://www.w3.org/2000/svg" p-id="9323" xmlns:xlink="http://www.w3.org/1999/xlink" width="200.1953125" height="200"><path d="M139.887689 834.62635h746.989201c76.302376 0 138.228942-61.926566 138.228942-138.228942V138.228942c0-76.302376-61.926566-138.228942-138.228942-138.228942H139.887689c-76.302376 0-138.228942 61.926566-138.228942 138.228942v558.168466c0 76.302376 61.926566 138.228942 138.228942 138.228942zM56.950324 138.228942c0-45.615551 37.321814-82.937365 82.937365-82.937365h746.989201c45.615551 0 82.937365 37.321814 82.937365 82.937365v558.168466c0 45.615551-37.321814 82.937365-82.937365 82.937365H139.887689c-45.615551 0-82.937365-37.321814-82.937365-82.937365V138.228942zM998.289417 968.708423H27.645788c-15.205184 0-27.645788 12.440605-27.645788 27.645789s12.440605 27.645788 27.645788 27.645788h970.643629c15.205184 0 27.645788-12.440605 27.645788-27.645788s-12.440605-27.645788-27.645788-27.645789z" fill="#333333" p-id="9324"></path><path d="M563.697624 608.483801a218.84406 218.84406 0 0 0 128.552916-84.043196c66.62635-90.678186 55.291577-204.025918-7.464363-278.946005-9.676026-11.611231-27.645788-11.887689-37.87473-0.829373-8.570194 9.12311-8.846652 23.222462-0.829374 32.62203 49.762419 59.161987 58.332613 149.563715 3.041037 220.889849a168.086393 168.086393 0 0 1-88.74298 59.161987 174.444924 174.444924 0 0 1-185.779698-273.693305 24.88121 24.88121 0 0 0-2.488121-32.62203 25.102376 25.102376 0 0 0-37.598272 2.764579 223.073866 223.073866 0 0 0-45.615551 135.740821c0 140.164147 129.382289 251.023758 275.075594 218.678185z" fill="#333333" p-id="9325"></path><path d="M485.183585 181.356371m27.645789 0l0 0q27.645788 0 27.645788 27.645789l0 173.892008q0 27.645788-27.645788 27.645789l0 0q-27.645788 0-27.645789-27.645789l0-173.892008q0-27.645788 27.645789-27.645789Z" fill="#333333" p-id="9326"></path></svg>