<?xml version="1.0" standalone="no"?><!DOCTYPE svg PUBLIC "-//W3C//DTD SVG 1.1//EN" "http://www.w3.org/Graphics/SVG/1.1/DTD/svg11.dtd"><svg t="1781613371198" class="icon" viewBox="0 0 1024 1024" version="1.1" xmlns="http://www.w3.org/2000/svg" p-id="12382" xmlns:xlink="http://www.w3.org/1999/xlink" width="200" height="200"><path d="M680.920615 35.446154c45.686154 0 82.707692 37.021538 82.707693 82.707692v639.803077H244.657231c-46.749538 0-83.180308 33.28-83.180308 72.310154v-0.393846c0 38.872615 36.233846 72.034462 82.707692 72.034461H827.076923a35.446154 35.446154 0 0 0 35.446154-35.446154V157.892923a43.323077 43.323077 0 0 1 86.646154 0V866.461538a122.092308 122.092308 0 0 1-122.092308 122.092308H244.184615c-92.711385 0-169.353846-70.144-169.353846-158.72V161.319385C74.830769 91.175385 133.947077 35.446154 205.666462 35.446154H680.96zM472.615385 795.569231a31.507692 31.507692 0 1 1 0 63.015384H315.076923a31.507692 31.507692 0 1 1 0-63.015384h157.538462z m204.327384-673.476923H205.666462c-24.969846 0-44.189538 18.116923-44.189539 39.187692v530.392615l4.804923-2.441846a178.254769 178.254769 0 0 1 69.947077-17.723077l8.428308-0.196923h432.285538V122.092308z" fill="#000000" p-id="12383"></path></svg>