<?xml version="1.0" standalone="no"?><!DOCTYPE svg PUBLIC "-//W3C//DTD SVG 1.1//EN" "http://www.w3.org/Graphics/SVG/1.1/DTD/svg11.dtd"><svg t="1770063827135" class="icon" viewBox="0 0 1024 1024" version="1.1" xmlns="http://www.w3.org/2000/svg" p-id="48584" xmlns:xlink="http://www.w3.org/1999/xlink" width="200" height="200"><path d="M405.640944 504.779591H48.676913a48.676913 48.676913 0 0 1-48.676913-48.676913v-356.964031a48.676913 48.676913 0 0 1 48.676913-48.676914h356.964031a48.676913 48.676913 0 0 1 48.676914 48.676914v356.964031a48.676913 48.676913 0 0 1-48.676914 48.676913z m-324.512755-81.128189h292.06148v-292.06148H81.128189z m324.512755-292.06148z" p-id="48585" fill="#ffffff"></path><path d="M405.640944 1024H48.676913a48.676913 48.676913 0 0 1-48.676913-48.676913v-356.964031a48.676913 48.676913 0 0 1 48.676913-48.676914h356.964031a48.676913 48.676913 0 0 1 48.676914 48.676914v356.964031a48.676913 48.676913 0 0 1-48.676914 48.676913z m-324.512755-81.128189h292.06148v-292.06148H81.128189z m324.512755-292.06148z" p-id="48586" fill="#ffffff"></path><path d="M762.604975 517.111076a48.676913 48.676913 0 0 1-34.885121-14.116305L521.167485 296.280146a48.676913 48.676913 0 0 1-14.278561-34.398352 48.676913 48.676913 0 0 1 14.278561-34.722865L727.719854 20.931073a48.676913 48.676913 0 0 1 68.796704 0L1003.068927 227.158929a48.676913 48.676913 0 0 1 0 68.796704L796.516558 502.994771a48.676913 48.676913 0 0 1-33.911583 14.116305z m-160.633814-255.229282L762.604975 421.866582l160.633814-160.633814L762.604975 101.24798z m344.145778 23.040405z m-367.023927 0z" p-id="48587" fill="#ffffff"></path><path d="M924.861353 1024H567.897322a48.676913 48.676913 0 0 1-48.676913-48.676913v-356.964031a48.676913 48.676913 0 0 1 48.676913-48.676914h356.964031a48.676913 48.676913 0 0 1 48.676914 48.676914v356.964031a48.676913 48.676913 0 0 1-48.676914 48.676913z m-324.512755-81.128189h292.06148v-292.06148H600.348598z m324.512755-292.06148z" p-id="48588" fill="#ffffff"></path></svg>