<?xml version="1.0" standalone="no"?><!DOCTYPE svg PUBLIC "-//W3C//DTD SVG 1.1//EN" "http://www.w3.org/Graphics/SVG/1.1/DTD/svg11.dtd"><svg t="1773392293767" class="icon" viewBox="0 0 1024 1024" version="1.1" xmlns="http://www.w3.org/2000/svg" p-id="9894" xmlns:xlink="http://www.w3.org/1999/xlink" width="200" height="200"><path d="M512 64c126.677333 3.328 232.192 47.146667 316.501333 131.498667C912.853333 279.808 956.672 385.28 960 512c-3.328 126.677333-47.146667 232.192-131.498667 316.501333C744.192 912.853333 638.72 956.672 512 960c-126.677333-3.328-232.192-47.146667-316.501333-131.498667C111.146667 744.192 67.328 638.72 64 512c3.328-126.677333 47.146667-232.192 131.498667-316.501333C279.808 111.146667 385.28 67.328 512 64zM512 256c-17.322667 0-31.658667 6.357333-43.008 19.029333A58.197333 58.197333 0 0 0 453.973333 320l23.04 256a35.925333 35.925333 0 0 0 11.477334 22.485333 34.048 34.048 0 0 0 23.466666 8.533334 33.621333 33.621333 0 0 0 23.466667-8.533334 36.138667 36.138667 0 0 0 11.52-22.485333l23.04-256a57.984 57.984 0 0 0-15.018667-44.970667A55.381333 55.381333 0 0 0 511.914667 256H512z m0 512c14.677333-0.64 26.88-5.674667 36.522667-15.018667 9.642667-9.344 14.506667-21.333333 14.506666-35.968A49.578667 49.578667 0 0 0 512 665.984a49.493333 49.493333 0 0 0-50.986667 51.029333c0 14.677333 4.821333 26.666667 14.506667 35.968 9.642667 9.301333 21.802667 14.293333 36.48 15.018667z" fill="#d81e06" fill-opacity=".96" p-id="9895"></path></svg>