<?xml version="1.0" standalone="no"?><!DOCTYPE svg PUBLIC "-//W3C//DTD SVG 1.1//EN" "http://www.w3.org/Graphics/SVG/1.1/DTD/svg11.dtd"><svg t="1784398150091" class="icon" viewBox="0 0 1080 1024" version="1.1" xmlns="http://www.w3.org/2000/svg" p-id="19778" xmlns:xlink="http://www.w3.org/1999/xlink" width="210.9375" height="200"><path d="M925.866667 77.198222h-125.326223v121.799111c0 36.977778-30.264889 67.413333-67.527111 67.413334a67.299556 67.299556 0 0 1-67.527111-67.413334V77.198222h-250.624v121.799111c0 36.977778-30.264889 67.413333-67.527111 67.413334a67.299556 67.299556 0 0 1-67.527111-67.413334V77.198222H154.481778C69.688889 77.198222 0 146.801778 0 231.623111v617.642667c0 84.821333 69.688889 154.424889 154.481778 154.424889H926.435556c84.792889 0 154.481778-69.603556 154.481777-154.424889V231.623111c-0.540444-84.821333-70.229333-154.424889-155.022222-154.424889z m77.255111 772.067556a77.368889 77.368889 0 0 1-77.255111 77.198222H154.453333a77.368889 77.368889 0 0 1-77.226666-77.198222V386.019556h925.866666v463.246222zM733.013333 231.623111c21.048889 0 38.371556-17.408 38.371556-38.599111V38.599111C771.384889 17.408 754.062222 0 733.013333 0c-21.048889 0-38.343111 17.408-38.343111 38.599111v154.424889c0 21.191111 17.265778 38.599111 38.343111 38.599111z m-386.218666 0c21.048889 0 38.343111-17.408 38.343111-38.599111V38.599111C385.137778 17.408 367.872 0 346.794667 0c-21.048889 0-38.343111 17.408-38.343111 38.599111v154.424889c0 21.191111 17.265778 38.599111 38.343111 38.599111z" fill="#333333" p-id="19779"></path><path d="M289.905778 595.626667c1.024 20.48 10.922667 76.458667 14.677333 95.232l19.114667 94.208h85.333333l52.906667-266.24h-64.170667l-23.210667 136.533333c-5.12 30.378667-8.192 54.613333-9.216 75.434667h-3.413333a531.143111 531.143111 0 0 0-10.126222-65.507556l-31.857778-146.460444H259.527111l-28.330667 136.533333c-6.485333 31.744-10.24 51.882667-12.629333 75.434667h-3.413333c-1.365333-23.893333-4.437333-45.056-10.24-75.434667l-26.282667-136.533333H113.777778l52.906666 266.24h89.088l16.725334-92.842667c3.754667-20.48 12.970667-76.458667 13.994666-96.597333h3.413334z m349.525333 79.530666c0-48.469333-24.917333-88.064-87.04-88.064-49.834667 0-87.04 34.133333-87.04 103.765334 0 62.805333 33.109333 97.621333 91.818667 97.621333 33.109333 0 60.757333-9.898667 77.141333-49.152l-50.858667-15.36c-4.096 16.384-12.629333 25.258667-25.6 25.258667-17.408 0-30.378667-11.946667-33.792-44.373334h115.370667v-29.696z m-115.029333-9.216c3.754667-31.061333 16.725333-39.936 31.061333-39.936 16.725333 0 29.696 13.312 30.037333 39.936h-61.098666zM844.572444 512h-58.026666l0.056889 56.149333c0.199111 20.024889 1.109333 28.956444 3.697777 40.789334h-1.024c-11.605333-14.336-27.306667-21.845333-47.445333-21.845334-47.786667 0-81.92 41.642667-81.92 100.010667 0 65.536 27.648 101.376 78.506667 101.376 20.821333 0 37.888-8.874667 50.176-24.576h1.365333c-1.080889 6.257778-1.536 10.808889-1.649778 15.530667l-0.056889 5.632h56.32V512z m-89.088 234.154667c-22.869333 0-36.522667-21.845333-36.522666-59.050667 0-36.181333 13.312-58.368 34.816-58.368 23.893333 0 35.498667 18.773333 35.498666 58.026667 0 37.888-12.288 59.392-33.792 59.392z m159.402667-30.037334a36.124444 36.124444 0 0 1 36.181333 35.84c0 18.773333-16.042667 36.522667-36.181333 36.522667-20.48 0-36.181333-16.384-36.181333-36.522667 0-19.456 15.701333-35.84 36.181333-35.84z" fill="#333333" p-id="19780"></path></svg>