<?xml version="1.0" standalone="no"?><!DOCTYPE svg PUBLIC "-//W3C//DTD SVG 1.1//EN" "http://www.w3.org/Graphics/SVG/1.1/DTD/svg11.dtd"><svg t="1773564655552" class="icon" viewBox="0 0 1024 1024" version="1.1" xmlns="http://www.w3.org/2000/svg" p-id="11623" xmlns:xlink="http://www.w3.org/1999/xlink" width="200" height="200"><path d="M853.333333 170.666667H170.666667v85.333333h288L221.866667 571.733333A42.624 42.624 0 0 0 256 640h85.333333v170.666667a42.666667 42.666667 0 0 0 42.666667 42.666666h256a42.666667 42.666667 0 0 0 42.666667-42.666666v-170.666667h85.333333a42.709333 42.709333 0 0 0 34.133333-68.266667L565.333333 256H853.333333V170.666667z m-213.333333 384a42.666667 42.666667 0 0 0-42.666667 42.666666v170.666667h-170.666666v-170.666667a42.666667 42.666667 0 0 0-42.666667-42.666666H341.333333l170.666667-227.541334L682.666667 554.666667h-42.666667z" p-id="11624" fill="#d81e06"></path></svg>