<?xml version="1.0" standalone="no"?><!DOCTYPE svg PUBLIC "-//W3C//DTD SVG 1.1//EN" "http://www.w3.org/Graphics/SVG/1.1/DTD/svg11.dtd"><svg t="1784397461012" class="icon" viewBox="0 0 1024 1024" version="1.1" xmlns="http://www.w3.org/2000/svg" p-id="8143" xmlns:xlink="http://www.w3.org/1999/xlink" width="200" height="200"><path d="M488.32 681.088c51.392 0 163.968-0.192 337.664-0.512 42.496 0 76.928 34.432 76.928 76.992v53.376c0 42.496-34.432 76.992-76.992 76.992l-164.608 0.512a37.312 37.312 0 1 0 0.256 74.688l164.48-0.512a151.68 151.68 0 0 0 151.552-151.68v-53.376c0-83.84-67.84-151.68-151.68-151.68-167.68 0.32-278.336 0.512-331.968 0.512l88.768-88.832a37.312 37.312 0 1 0-52.8-52.8l-181.696 181.76 181.76 181.76a37.312 37.312 0 0 0 52.736-52.8l-94.336-94.4z m414.592-205.12a37.312 37.312 0 0 0 74.688 0V201.216a151.68 151.68 0 0 0-151.68-151.68H215.68C131.84 49.536 64 117.376 64 201.216v610.24a151.68 151.68 0 0 0 151.68 151.68h186.112a37.312 37.312 0 1 0 0-74.688H215.68a76.992 76.992 0 0 1-76.992-76.992V201.216c0-42.56 34.432-76.992 76.992-76.992h610.24c42.496 0 76.992 34.496 76.992 76.992v274.752z" fill="#333333" p-id="8144"></path></svg>